<?xml version="1.0" encoding="UTF-8"?>
<svg version="1.1" xmlns="http://www.w3.org/2000/svg" width="597" height="418">
<path d="M0 0 C16.83 0 33.66 0 51 0 C51.33 0.99 51.66 1.98 52 3 C48.375 6 48.375 6 45 6 C49.6435832 18.34646827 55.77399545 29.45430633 62.59985352 40.69775391 C65.797613 45.96847811 68.85621408 51.27981012 71.75390625 56.72265625 C73.6834554 60.24907366 75.8299718 63.61730898 78 67 C82.49661813 59.99056586 86.66142407 52.81018463 90.3046875 45.31640625 C93.18471213 39.68244102 96.43226461 34.25302173 99.6171875 28.78710938 C103.76337249 21.60348289 107.14374958 15.39125412 108 7 C106.824375 6.5359375 106.824375 6.5359375 105.625 6.0625 C103 5 103 5 101 4 C101 2.68 101 1.36 101 0 C116.18 0 131.36 0 147 0 C147 1.32 147 2.64 147 4 C144.19638144 5.54420526 141.8406188 6.27955243 138.6875 6.75 C130.48706783 8.52161546 126.32894381 14.44106331 121.83984375 21.12890625 C116.10015157 29.88207773 116.10015157 29.88207773 111 39 C110.34 39 109.68 39 109 39 C108.9071875 39.99 108.9071875 39.99 108.8125 41 C107.85751424 44.52610128 106.26251803 47.02994375 104.26953125 50.0625 C103.2181099 51.66713074 102.25302587 53.32795402 101.3125 55 C100.879375 55.66 100.44625 56.32 100 57 C99.34 57 98.68 57 98 57 C97.89816406 57.70511719 97.79632813 58.41023438 97.69140625 59.13671875 C96.90085188 62.41059645 95.59476266 64.88584467 93.9375 67.8125 C93.38964844 68.78832031 92.84179688 69.76414062 92.27734375 70.76953125 C91.85582031 71.50558594 91.43429687 72.24164063 91 73 C93.66913152 72.0900688 96.33513611 71.17228234 99 70.25 C100.11568359 69.87101562 100.11568359 69.87101562 101.25390625 69.484375 C105.75389867 67.91916024 109.96886508 66.12297331 114.17578125 63.8828125 C117.02633591 62.50331495 119.93342197 61.76664451 123 61 C122.34 62.32 121.68 63.64 121 65 C120.34 65 119.68 65 119 65 C119 65.66 119 66.32 119 67 C117.35443434 68.03435556 115.6829392 69.02763513 114 70 C113.175 70.66 112.35 71.32 111.5 72 C107.23799574 75.4096034 103.22612919 77.42000746 98 79 C98 79.66 98 80.32 98 81 C96.3663741 81.69515996 94.73250047 82.38974135 93.09765625 83.08203125 C91.73881916 83.67668063 90.39110355 84.29770993 89.05859375 84.94921875 C76.18167123 91.13111893 62.53547606 93.18702495 48.38916016 93.18530273 C46.40132519 93.18747128 44.41352964 93.20593122 42.42578125 93.22460938 C32.58222933 93.23938948 23.16595911 92.82718 14 89 C11.66836622 88.32741333 9.3347961 87.66152556 7 87 C3.98381008 86.04601569 0.99037663 85.03182325 -2 84 C-2.86882812 83.7009375 -3.73765625 83.401875 -4.6328125 83.09375 C-10.28210806 81.09798746 -15.72046619 78.83097112 -21.1484375 76.296875 C-25.23494854 74.43835217 -29.39762559 72.77754089 -33.56640625 71.11328125 C-36 70 -36 70 -38 68 C-40.14753053 67.17735726 -42.31854852 66.41544087 -44.5 65.6875 C-48.87521205 64.19034927 -53.08095651 62.58004443 -57.1875 60.4375 C-65.5400743 56.10553278 -74.22598263 53.55329597 -83.34228516 51.39428711 C-87.31194622 50.45259364 -91.13279255 49.29083258 -95 48 C-96.78462483 47.59280391 -98.57641478 47.21527288 -100.375 46.875 C-101.24898437 46.70742187 -102.12296875 46.53984375 -103.0234375 46.3671875 C-104.00183594 46.18542969 -104.00183594 46.18542969 -105 46 C-105.36824208 48.99854262 -105.69148382 51.99497223 -106 55 C-106.13019531 56.09054688 -106.26039063 57.18109375 -106.39453125 58.3046875 C-108.22058461 76.96655155 -103.90571521 95.55264742 -93 111 C-90.53920103 113.7608964 -88.10212168 115.92057203 -85.1875 118.1875 C-84.465625 118.785625 -83.74375 119.38375 -83 120 C-83 120.66 -83 121.32 -83 122 C-81.02 122.495 -81.02 122.495 -79 123 C-79 123.66 -79 124.32 -79 125 C-78.29230469 125.103125 -77.58460938 125.20625 -76.85546875 125.3125 C-73.62705985 126.08979134 -71.21201005 127.38959122 -68.3125 129 C-62.67665165 131.87290806 -58.27591238 132.96269889 -52 133 C-50.95714844 133.02578125 -49.91429687 133.0515625 -48.83984375 133.078125 C-45.55453132 133.12423465 -42.28436744 133.08504527 -39 133 C-38.10925781 132.98324219 -37.21851563 132.96648437 -36.30078125 132.94921875 C-27.94682344 132.49021008 -20.96111043 129.43509761 -15.125 123.375 C-11.86321746 119.37988931 -10.39593169 115.15193271 -9.01953125 110.22265625 C-8 108 -8 108 -5.94921875 107.12109375 C-4.98435547 107.06115234 -4.98435547 107.06115234 -4 107 C-2.38343043 108.61656957 -2.79005434 110.32279499 -2.75 112.5625 C-2.78980225 117.62401931 -3.44753497 122.41579662 -4.375 127.375 C-4.50100586 128.05248291 -4.62701172 128.72996582 -4.75683594 129.42797852 C-6.6277807 138.84218996 -6.6277807 138.84218996 -10 141.6875 C-14.23594032 143.54072389 -18.46108761 144.22098099 -23 145 C-24.22396484 145.28037109 -24.22396484 145.28037109 -25.47265625 145.56640625 C-53.54733998 151.47904215 -83.38586673 145.88680065 -107.26171875 130.546875 C-110.89094415 128.05916301 -114.07191174 125.28300805 -117 122 C-117 121.34 -117 120.68 -117 120 C-117.66 120 -118.32 120 -119 120 C-119.33 119.01 -119.66 118.02 -120 117 C-120.763125 116.278125 -121.52625 115.55625 -122.3125 114.8125 C-125.52254077 111.45315501 -127.15979682 108.21990368 -129 104 C-129.35191406 103.21238281 -129.70382813 102.42476563 -130.06640625 101.61328125 C-134.44896817 91.31183496 -135.32433104 81.63726686 -135.25 70.5 C-135.25773437 69.34113281 -135.26546875 68.18226563 -135.2734375 66.98828125 C-135.25784344 60.08790802 -134.67678071 53.69948374 -133 47 C-135.91819239 47.61846464 -138.83441022 48.24448135 -141.75 48.875 C-142.575 49.04902344 -143.4 49.22304687 -144.25 49.40234375 C-145.04921875 49.57636719 -145.8484375 49.75039062 -146.671875 49.9296875 C-147.4050293 50.08679199 -148.13818359 50.24389648 -148.89355469 50.40576172 C-151.051413 50.9420292 -151.051413 50.9420292 -153.09863281 52.05908203 C-155.49646463 53.24568242 -157.36049195 53.14663934 -160 53 C-160 52.34 -160 51.68 -160 51 C-138.89568971 40.70334498 -119.7940031 34.43886601 -96.16308594 34.66381836 C-93.4756127 34.68771687 -90.78911736 34.68431435 -88.1015625 34.67773438 C-86.36978582 34.68330391 -84.63801323 34.69040921 -82.90625 34.69921875 C-82.11448364 34.69830734 -81.32271729 34.69739594 -80.50695801 34.69645691 C-75.63250946 34.75825259 -71.63616179 35.49156976 -67 37 C-65.33770338 37.29647668 -63.67085463 37.5688337 -62 37.8125 C-54.74491757 39.07164654 -47.92716264 41.57704625 -41 44 C-39.54277442 44.48252503 -38.08462228 44.96227414 -36.625 45.4375 C-26.70166204 48.75155594 -16.80195735 52.17476745 -7.1171875 56.13671875 C-3.77266074 57.50044645 -0.38972826 58.75377637 3 60 C3.86625 60.3196875 4.7325 60.639375 5.625 60.96875 C11.38555444 63.08095329 17.1499135 65.14902924 23 67 C23.60086426 67.19239258 24.20172852 67.38478516 24.82080078 67.58300781 C33.63915252 70.38295664 42.12586349 72.58276274 51.33984375 73.640625 C54 74 54 74 56 75 C55.55269531 74.31035156 55.10539063 73.62070313 54.64453125 72.91015625 C44 56.36460554 44 56.36460554 44 53 C43.34 53 42.68 53 42 53 C41.68289063 52.3915625 41.36578125 51.783125 41.0390625 51.15625 C34.87556302 39.57840567 27.95341742 28.38828635 20.1796875 17.8203125 C19 16 19 16 19 14 C18.34 14 17.68 14 17 14 C15.375 12.625 15.375 12.625 14 11 C14 10.34 14 9.68 14 9 C13.40832031 8.80664062 12.81664062 8.61328125 12.20703125 8.4140625 C8.0853355 7.05585281 4.0049476 5.67949415 0 4 C0 2.68 0 1.36 0 0 Z " fill="#54C9E6" transform="translate(300,137)"/>
<path d="M0 0 C2.68747323 0.02389851 5.37396858 0.02049599 8.06152344 0.01391602 C9.79330012 0.01948555 11.5250727 0.02659085 13.25683594 0.03540039 C14.04860229 0.03448898 14.84036865 0.03357758 15.65612793 0.03263855 C20.515374 0.0942415 24.54834009 0.79780543 29.16308594 2.33618164 C29.16308594 2.99618164 29.16308594 3.65618164 29.16308594 4.33618164 C30.81308594 4.33618164 32.46308594 4.33618164 34.16308594 4.33618164 C34.16308594 4.99618164 34.16308594 5.65618164 34.16308594 6.33618164 C33.50308594 6.66618164 32.84308594 6.99618164 32.16308594 7.33618164 C32.65808594 8.82118164 32.65808594 8.82118164 33.16308594 10.33618164 C33.82308594 10.33618164 34.48308594 10.33618164 35.16308594 10.33618164 C35.16308594 9.67618164 35.16308594 9.01618164 35.16308594 8.33618164 C37.63808594 7.84118164 37.63808594 7.84118164 40.16308594 7.33618164 C39.83308594 8.65618164 39.50308594 9.97618164 39.16308594 11.33618164 C38.50308594 11.33618164 37.84308594 11.33618164 37.16308594 11.33618164 C37.16308594 13.64618164 37.16308594 15.95618164 37.16308594 18.33618164 C38.64808594 18.83118164 38.64808594 18.83118164 40.16308594 19.33618164 C40.65808594 21.81118164 40.65808594 21.81118164 41.16308594 24.33618164 C39.47382916 24.07653096 37.78673288 23.80281498 36.10058594 23.52368164 C35.16085938 23.37286133 34.22113281 23.22204102 33.25292969 23.06665039 C30.16308594 22.33618164 30.16308594 22.33618164 26.79589844 20.89086914 C22.9261482 19.23478248 19.18559625 18.21817023 15.10058594 17.27368164 C10.37193225 16.15974146 5.7720658 14.87673475 1.16308594 13.33618164 C-0.62153889 12.92898555 -2.41332884 12.55145452 -4.21191406 12.21118164 C-5.52289063 11.95981445 -5.52289063 11.95981445 -6.86035156 11.70336914 C-7.51261719 11.58219727 -8.16488281 11.46102539 -8.83691406 11.33618164 C-9.20515614 14.33472426 -9.52839788 17.33115387 -9.83691406 20.33618164 C-9.96710938 21.42672852 -10.09730469 22.51727539 -10.23144531 23.64086914 C-12.05749868 42.30273319 -7.74262927 60.88882906 3.16308594 76.33618164 C5.6238849 79.09707804 8.06096426 81.25675367 10.97558594 83.52368164 C11.69746094 84.12180664 12.41933594 84.71993164 13.16308594 85.33618164 C13.16308594 85.99618164 13.16308594 86.65618164 13.16308594 87.33618164 C15.14308594 87.83118164 15.14308594 87.83118164 17.16308594 88.33618164 C17.16308594 88.99618164 17.16308594 89.65618164 17.16308594 90.33618164 C17.87078125 90.43930664 18.57847656 90.54243164 19.30761719 90.64868164 C22.53602609 91.42597298 24.95107589 92.72577286 27.85058594 94.33618164 C33.48643429 97.2090897 37.88717356 98.29888053 44.16308594 98.33618164 C45.2059375 98.36196289 46.24878906 98.38774414 47.32324219 98.41430664 C50.60855461 98.46041629 53.8787185 98.42122691 57.16308594 98.33618164 C58.05382812 98.31942383 58.94457031 98.30266602 59.86230469 98.28540039 C68.2162625 97.82639172 75.20197551 94.77127925 81.03808594 88.71118164 C84.29986847 84.71607095 85.76715425 80.48811435 87.14355469 75.55883789 C88.16308594 73.33618164 88.16308594 73.33618164 90.21386719 72.45727539 C91.17873047 72.39733398 91.17873047 72.39733398 92.16308594 72.33618164 C93.77965551 73.95275121 93.3730316 75.65897663 93.41308594 77.89868164 C93.37328369 82.96020095 92.71555097 87.75197826 91.78808594 92.71118164 C91.59907715 93.72740601 91.59907715 93.72740601 91.40625 94.76416016 C89.53530524 104.1783716 89.53530524 104.1783716 86.16308594 107.02368164 C81.92714562 108.87690553 77.70199833 109.55716264 73.16308594 110.33618164 C72.34710938 110.5230957 71.53113281 110.71000977 70.69042969 110.90258789 C42.61574596 116.81522379 12.77721921 111.22298229 -11.09863281 95.88305664 C-14.72785821 93.39534465 -17.9088258 90.61918969 -20.83691406 87.33618164 C-20.83691406 86.67618164 -20.83691406 86.01618164 -20.83691406 85.33618164 C-21.49691406 85.33618164 -22.15691406 85.33618164 -22.83691406 85.33618164 C-23.16691406 84.34618164 -23.49691406 83.35618164 -23.83691406 82.33618164 C-24.60003906 81.61430664 -25.36316406 80.89243164 -26.14941406 80.14868164 C-29.35945483 76.78933665 -30.99671088 73.55608532 -32.83691406 69.33618164 C-33.18882812 68.54856445 -33.54074219 67.76094727 -33.90332031 66.94946289 C-38.28588223 56.6480166 -39.1612451 46.9734485 -39.08691406 35.83618164 C-39.09464844 34.67731445 -39.10238281 33.51844727 -39.11035156 32.32446289 C-39.0947575 25.42408966 -38.51369477 19.03566538 -36.83691406 12.33618164 C-39.75510646 12.95464628 -42.67132428 13.58066299 -45.58691406 14.21118164 C-46.41191406 14.38520508 -47.23691406 14.55922852 -48.08691406 14.73852539 C-48.88613281 14.91254883 -49.68535156 15.08657227 -50.50878906 15.26586914 C-51.24194336 15.42297363 -51.97509766 15.58007812 -52.73046875 15.74194336 C-54.88832706 16.27821084 -54.88832706 16.27821084 -56.93554688 17.39526367 C-59.33337869 18.58186406 -61.19740601 18.48282098 -63.83691406 18.33618164 C-63.83691406 17.67618164 -63.83691406 17.01618164 -63.83691406 16.33618164 C-42.73260377 6.03952662 -23.63091716 -0.22495235 0 0 Z " fill="#A0E0F0" transform="translate(203.8369140625,171.663818359375)"/>
<path d="M0 0 C7.88884299 2.16306985 15.07141437 4.80796907 22.3203125 8.60546875 C25.48739475 10.25364421 28.69753161 11.6489902 32 13 C32 13.66 32 14.32 32 15 C32.804375 15.0825 33.60875 15.165 34.4375 15.25 C37.37901493 15.8692663 39.41481566 16.55222931 42.08984375 17.79296875 C47.04233739 20.04103072 52.06725719 22.06480706 57.125 24.0625 C58.83627246 24.74004 60.54721643 25.41841035 62.2578125 26.09765625 C63.0732251 26.42080811 63.8886377 26.74395996 64.72875977 27.0769043 C66.68203315 27.87076936 68.61143586 28.7229204 70.53515625 29.5859375 C74.72361125 31.29531823 78.93406559 32.45032266 83.3125 33.5625 C84.15482178 33.77938477 84.99714355 33.99626953 85.86499023 34.21972656 C115.99090068 41.89608228 143.04960376 38.72167722 171.6015625 26.8046875 C175.02616379 25.37583958 178.4711541 24.15157016 182 23 C188.11854385 20.58604325 194.18016433 18.07157994 200 15 C200 16.32 200 17.64 200 19 C198.34765625 20.4921875 198.34765625 20.4921875 196.0625 21.875 C195.24394531 22.38417969 194.42539062 22.89335937 193.58203125 23.41796875 C192.72996094 23.94003906 191.87789062 24.46210938 191 25 C189.41227522 26.05592647 187.82874712 27.11819733 186.25 28.1875 C177.50836614 34 177.50836614 34 175 34 C175 34.66 175 35.32 175 36 C171.37 37.65 167.74 39.3 164 41 C163.94548694 44.45855093 163.90608016 47.9162219 163.875 51.375 C163.84986328 52.82326172 163.84986328 52.82326172 163.82421875 54.30078125 C163.78156375 60.65637624 164.05768331 66.89837887 166 73 C169.37830066 76.37830066 174.20462857 75.85356224 178.8125 76.33984375 C182 77 182 77 184 80 C183.67 80.66 183.34 81.32 183 82 C162.87 82 142.74 82 122 82 C122.33 80.35 122.66 78.7 123 77 C128.94 76.01 128.94 76.01 135 75 C136.50075784 65.99545298 137.48082214 57.11293762 138 48 C137.01 48.495 137.01 48.495 136 49 C121.95233597 49.91733039 107.59619893 49.87755673 94 46 C92.28296875 45.53013672 92.28296875 45.53013672 90.53125 45.05078125 C84.79615532 43.38681456 79.35076284 41.41599402 73.9453125 38.8828125 C71.36169838 37.71032898 68.70936353 36.83365032 66 36 C66 35.34 66 34.68 66 34 C64.73349609 33.86464844 64.73349609 33.86464844 63.44140625 33.7265625 C59.5169471 32.89801607 56.39403407 31.32068906 52.9375 29.375 C52.28918213 29.01962158 51.64086426 28.66424316 50.97290039 28.2980957 C49.63504023 27.56454612 48.29901786 26.82763491 46.96484375 26.08740234 C43.96889135 24.42935413 40.95315199 22.80945044 37.9375 21.1875 C36.93589844 20.64480469 35.93429687 20.10210937 34.90234375 19.54296875 C32.91752852 18.48778434 30.9178182 17.46027549 28.90625 16.45703125 C26.40918674 15.20514335 23.98568394 13.88721723 21.5625 12.5 C17.7983644 10.39208407 13.97865746 8.67522419 10 7 C6.64862199 5.36866747 3.3216643 3.69090758 0 2 C0 1.34 0 0.68 0 0 Z " fill="#32B8DA" transform="translate(223,199)"/>
<path d="M0 0 C1.12019531 -0.00547852 2.24039063 -0.01095703 3.39453125 -0.01660156 C9.91001905 0.03910278 16.08742077 0.62111426 22.48901367 1.84326172 C25.22726339 2.31941443 27.9155049 2.56769075 30.6875 2.75 C45.83983756 3.96483756 45.83983756 3.96483756 49.1875 7.3125 C49.24165057 9.87321161 49.2319233 12.40209062 49.171875 14.9609375 C49.14713104 16.11343491 49.14713104 16.11343491 49.12188721 17.28921509 C49.08431917 18.91846541 49.04376449 20.54764912 49.00048828 22.17675781 C48.93794298 24.66984281 48.89640273 27.16272922 48.85546875 29.65625 C48.81640495 31.23701185 48.77608154 32.81774317 48.734375 34.3984375 C48.72484802 35.14539886 48.71532104 35.89236023 48.70550537 36.66195679 C48.53380691 41.86225693 48.53380691 41.86225693 46.65332031 44.30712891 C45.92773926 44.8047876 45.92773926 44.8047876 45.1875 45.3125 C43.7025 44.8175 43.7025 44.8175 42.1875 44.3125 C40.99492614 41.92735229 40.97978342 40.1566201 40.8125 37.5 C40.42346095 33.33428954 39.79295043 30.68993574 37.1875 27.3125 C36.65125 26.4875 36.115 25.6625 35.5625 24.8125 C26.03584586 14.78444301 10.04138329 12.4355796 -3.125 12 C-13.74752151 12.26401004 -24.03702255 13.87920924 -32.89453125 20.0078125 C-34.8125 21.3125 -34.8125 21.3125 -37.8125 22.3125 C-37.8125 22.9725 -37.8125 23.6325 -37.8125 24.3125 C-40.09769997 27.75367935 -41.60404505 29.02161783 -45.66259766 29.99853516 C-49.14736667 30.4789636 -52.61980207 30.82897199 -56.125 31.125 C-57.34251953 31.24552734 -58.56003906 31.36605469 -59.81445312 31.49023438 C-62.81248802 31.78415936 -65.81094765 32.05747444 -68.8125 32.3125 C-68.8125 27.82301566 -68.43882372 27.38615969 -65.5625 24.25 C-64.95921875 23.57839844 -64.3559375 22.90679687 -63.734375 22.21484375 C-58.78169918 17.3125 -58.78169918 17.3125 -55.8125 17.3125 C-55.8125 16.6525 -55.8125 15.9925 -55.8125 15.3125 C-37.68667032 4.41054113 -21.18017574 0.07531244 0 0 Z " fill="#25AFD1" transform="translate(247.8125,133.6875)"/>
<path d="M0 0 C15.18 0 30.36 0 46 0 C46 1.32 46 2.64 46 4 C43.19638144 5.54420526 40.8406188 6.27955243 37.6875 6.75 C29.48706783 8.52161546 25.32894381 14.44106331 20.83984375 21.12890625 C15.10015157 29.88207773 15.10015157 29.88207773 10 39 C9.34 39 8.68 39 8 39 C7.938125 39.66 7.87625 40.32 7.8125 41 C6.85751424 44.52610128 5.26251803 47.02994375 3.26953125 50.0625 C2.2181099 51.66713074 1.25302587 53.32795402 0.3125 55 C-0.120625 55.66 -0.55375 56.32 -1 57 C-1.66 57 -2.32 57 -3 57 C-3.10183594 57.70511719 -3.20367187 58.41023438 -3.30859375 59.13671875 C-4.09914812 62.41059645 -5.40523734 64.88584467 -7.0625 67.8125 C-7.61035156 68.78832031 -8.15820312 69.76414062 -8.72265625 70.76953125 C-9.14417969 71.50558594 -9.56570313 72.24164063 -10 73 C-7.33086848 72.0900688 -4.66486389 71.17228234 -2 70.25 C-1.25621094 69.99734375 -0.51242187 69.7446875 0.25390625 69.484375 C4.75389867 67.91916024 8.96886508 66.12297331 13.17578125 63.8828125 C16.02633591 62.50331495 18.93342197 61.76664451 22 61 C21.34 62.32 20.68 63.64 20 65 C19.34 65 18.68 65 18 65 C18 65.66 18 66.32 18 67 C16.35443434 68.03435556 14.6829392 69.02763513 13 70 C12.175 70.66 11.35 71.32 10.5 72 C6.23799574 75.4096034 2.22612919 77.42000746 -3 79 C-3 79.66 -3 80.32 -3 81 C-4.62717528 81.69241501 -6.25456145 82.38433728 -7.8828125 83.07421875 C-9.30598395 83.69652804 -10.71771496 84.34561551 -12.1171875 85.01953125 C-17.64408501 87.64529928 -22.96327549 89.04218985 -29 90 C-28.67 89.01 -28.34 88.02 -28 87 C-27.278125 86.7525 -26.55625 86.505 -25.8125 86.25 C-20.79807841 84.02136818 -16.9821231 79.10269639 -15 74 C-15.33 73.01 -15.66 72.02 -16 71 C-15.34 71 -14.68 71 -14 71 C-14.66 69.35 -15.32 67.7 -16 66 C-16.99 66 -17.98 66 -19 66 C-19 67.65 -19 69.3 -19 71 C-21.64 71 -24.28 71 -27 71 C-27.1546875 69.576875 -27.1546875 69.576875 -27.3125 68.125 C-27.68539295 64.70892499 -27.68539295 64.70892499 -31 63 C-30.01 61.68 -29.02 60.36 -28 59 C-26.35 61.64 -24.7 64.28 -23 67 C-18.50338187 59.99056586 -14.33857593 52.81018463 -10.6953125 45.31640625 C-7.81528787 39.68244102 -4.56773539 34.25302173 -1.3828125 28.78710938 C2.76337249 21.60348289 6.14374958 15.39125412 7 7 C6.21625 6.690625 5.4325 6.38125 4.625 6.0625 C2 5 2 5 0 4 C0 2.68 0 1.36 0 0 Z " fill="#26AED0" transform="translate(401,137)"/>
<path d="M0 0 C2.0625 0.4375 2.0625 0.4375 4 1 C4.37949914 7.63420723 3.8498973 13.86815401 2.625 20.375 C2.43587036 21.39110352 2.43587036 21.39110352 2.24291992 22.42773438 C0.37354725 31.84106951 0.37354725 31.84106951 -3 34.6875 C-7.23594032 36.54072389 -11.46108761 37.22098099 -16 38 C-16.81597656 38.18691406 -17.63195312 38.37382812 -18.47265625 38.56640625 C-38.37456728 42.75782492 -60.90888804 40.83322628 -80 34 C-79.38479492 33.84966309 -78.76958984 33.69932617 -78.13574219 33.54443359 C-75.74357712 32.93463386 -74.02856296 32.43039696 -72 31 C-71.08043198 28.36428432 -71.08043198 28.36428432 -70.75 25.375 C-70.60046875 24.37210937 -70.4509375 23.36921875 -70.296875 22.3359375 C-70.19890625 21.56507813 -70.1009375 20.79421875 -70 20 C-70.99 19.67 -71.98 19.34 -73 19 C-73 18.34 -73 17.68 -73 17 C-74.32 17 -75.64 17 -77 17 C-77.33 15.35 -77.66 13.7 -78 12 C-77.34 12.33 -76.68 12.66 -76 13 C-76 13.66 -76 14.32 -76 15 C-74.68 15.33 -73.36 15.66 -72 16 C-72 16.66 -72 17.32 -72 18 C-71.29230469 18.103125 -70.58460938 18.20625 -69.85546875 18.3125 C-66.62705985 19.08979134 -64.21201005 20.38959122 -61.3125 22 C-55.67665165 24.87290806 -51.27591238 25.96269889 -45 26 C-43.95714844 26.02578125 -42.91429687 26.0515625 -41.83984375 26.078125 C-38.55453132 26.12423465 -35.28436744 26.08504527 -32 26 C-31.10925781 25.98324219 -30.21851563 25.96648437 -29.30078125 25.94921875 C-20.94682344 25.49021008 -13.96111043 22.43509761 -8.125 16.375 C-4.881436 12.3740944 -3.2694042 8.09937764 -1.7265625 3.22265625 C-1 1 -1 1 0 0 Z " fill="#6FCDE5" transform="translate(293,244)"/>
<path d="M0 0 C7.88884299 2.16306985 15.07141437 4.80796907 22.3203125 8.60546875 C25.48739475 10.25364421 28.69753161 11.6489902 32 13 C32 13.66 32 14.32 32 15 C32.804375 15.0825 33.60875 15.165 34.4375 15.25 C37.37901493 15.8692663 39.41481566 16.55222931 42.08984375 17.79296875 C47.04233739 20.04103072 52.06725719 22.06480706 57.125 24.0625 C58.83627246 24.74004 60.54721643 25.41841035 62.2578125 26.09765625 C63.0732251 26.42080811 63.8886377 26.74395996 64.72875977 27.0769043 C66.68203315 27.87076936 68.61143586 28.7229204 70.53515625 29.5859375 C74.72403561 31.29549142 78.93438876 32.447752 83.3125 33.5625 C84.10333984 33.77068359 84.89417969 33.97886719 85.70898438 34.19335938 C95.49232752 36.72860427 105.0437126 38.34261001 115.125 39.125 C116.176875 39.21136719 117.22875 39.29773438 118.3125 39.38671875 C120.87462673 39.5963473 123.43705423 39.80068114 126 40 C126 40.33 126 40.66 126 41 C124.86820312 41.06058594 123.73640625 41.12117188 122.5703125 41.18359375 C121.08852855 41.26799917 119.6067584 41.35264717 118.125 41.4375 C117.00544922 41.49647461 117.00544922 41.49647461 115.86328125 41.55664062 C111.80013136 41.71573624 111.80013136 41.71573624 108 43 C107.67 42.34 107.34 41.68 107 41 C104.52733235 41.34444881 104.52733235 41.34444881 102 42 C101.505 42.99 101.505 42.99 101 44 C103.31 44.33 105.62 44.66 108 45 C104.28024091 47.4798394 101.30832984 47.42572429 97 47 C94.5 46.125 94.5 46.125 92 45 C90.824375 44.7215625 89.64875 44.443125 88.4375 44.15625 C83.61812246 42.98210229 79.09779958 41.21711514 74.5 39.375 C73.67757812 39.05015625 72.85515625 38.7253125 72.0078125 38.390625 C70.00344332 37.59819998 68.00146541 36.79973084 66 36 C66 35.34 66 34.68 66 34 C64.73349609 33.86464844 64.73349609 33.86464844 63.44140625 33.7265625 C59.5169471 32.89801607 56.39403407 31.32068906 52.9375 29.375 C52.28918213 29.01962158 51.64086426 28.66424316 50.97290039 28.2980957 C49.63504023 27.56454612 48.29901786 26.82763491 46.96484375 26.08740234 C43.96889135 24.42935413 40.95315199 22.80945044 37.9375 21.1875 C36.93589844 20.64480469 35.93429687 20.10210937 34.90234375 19.54296875 C32.91752852 18.48778434 30.9178182 17.46027549 28.90625 16.45703125 C26.40918674 15.20514335 23.98568394 13.88721723 21.5625 12.5 C17.7983644 10.39208407 13.97865746 8.67522419 10 7 C6.64862199 5.36866747 3.3216643 3.69090758 0 2 C0 1.34 0 0.68 0 0 Z " fill="#55AFC7" transform="translate(223,199)"/>
<path d="M0 0 C1.670625 0.061875 1.670625 0.061875 3.375 0.125 C2.694375 0.888125 2.01375 1.65125 1.3125 2.4375 C0.3534375 3.7678125 0.3534375 3.7678125 -0.625 5.125 C-0.13 6.61 -0.13 6.61 0.375 8.125 C-0.73875 8.434375 -1.8525 8.74375 -3 9.0625 C-6.4195155 9.94826483 -6.4195155 9.94826483 -8.625 11.125 C-8.810625 12.053125 -8.810625 12.053125 -9 13 C-9.83269751 15.83117154 -11.1456715 16.62237667 -13.625 18.125 C-14.285 18.125 -14.945 18.125 -15.625 18.125 C-15.625 18.785 -15.625 19.445 -15.625 20.125 C-17.91019997 23.56617935 -19.41654505 24.83411783 -23.47509766 25.81103516 C-26.95986667 26.2914636 -30.43230207 26.64147199 -33.9375 26.9375 C-35.15501953 27.05802734 -36.37253906 27.17855469 -37.62695312 27.30273438 C-40.62498802 27.59665936 -43.62344765 27.86997444 -46.625 28.125 C-46.625 23.63551566 -46.25132372 23.19865969 -43.375 20.0625 C-42.77171875 19.39089844 -42.1684375 18.71929687 -41.546875 18.02734375 C-36.59419918 13.125 -36.59419918 13.125 -33.625 13.125 C-33.625 12.465 -33.625 11.805 -33.625 11.125 C-26.0105589 5.74412829 -18.675194 1.97298074 -9.25 2.125 C-8.05375 2.125 -6.8575 2.125 -5.625 2.125 C-3.625 0.125 -3.625 0.125 0 0 Z " fill="#BEEFFB" transform="translate(225.625,137.875)"/>
<path d="M0 0 C0.99 0.495 0.99 0.495 2 1 C0.82418411 4.52744766 0.05490417 4.88727393 -3 6.8125 C-3.80953125 7.33070313 -4.6190625 7.84890625 -5.453125 8.3828125 C-6.29359375 8.91648438 -7.1340625 9.45015625 -8 10 C-9.58575833 11.05887734 -11.16919018 12.12124908 -12.75 13.1875 C-21.49163386 19 -21.49163386 19 -24 19 C-24 19.66 -24 20.32 -24 21 C-27.63 22.65 -31.26 24.3 -35 26 C-35.05451306 29.45855093 -35.09391984 32.9162219 -35.125 36.375 C-35.14175781 37.34050781 -35.15851563 38.30601562 -35.17578125 39.30078125 C-35.21843625 45.65637624 -34.94231669 51.89837887 -33 58 C-29.62169934 61.37830066 -24.79537143 60.85356224 -20.1875 61.33984375 C-17 62 -17 62 -15 65 C-15.33 65.66 -15.66 66.32 -16 67 C-36.13 67 -56.26 67 -77 67 C-76.67 65.68 -76.34 64.36 -76 63 C-76 63.99 -76 64.98 -76 66 C-63.46 65.34 -50.92 64.68 -38 64 C-38.33 63.34 -38.66 62.68 -39 62 C-38.67905525 59.6649304 -38.34368544 57.33183101 -38 55 C-37.89995662 50.0580683 -38.09026377 45.12722203 -38.25 40.1875 C-38.27755277 38.83919696 -38.3048983 37.49088968 -38.33203125 36.14257812 C-38.39197266 34.23702148 -38.39197266 34.23702148 -38.453125 32.29296875 C-38.48567383 31.1330542 -38.51822266 29.97313965 -38.55175781 28.77807617 C-38.69967773 27.86131104 -38.84759766 26.9445459 -39 26 C-39.99 25.34 -40.98 24.68 -42 24 C-42 23.34 -42 22.68 -42 22 C-41.360625 21.87625 -40.72125 21.7525 -40.0625 21.625 C-39.381875 21.41875 -38.70125 21.2125 -38 21 C-37.67 20.34 -37.34 19.68 -37 19 C-39.35171131 19.59861742 -41.6859378 20.26924352 -44 21 C-44.33 21.66 -44.66 22.32 -45 23 C-47.7283768 23 -50.31654063 22.46668859 -53 22 C-49.27312569 19.99322152 -45.33854355 18.58159994 -41.375 17.125 C-35.95279466 15.11513977 -30.55920884 13.06046862 -25.2109375 10.859375 C-23.52732676 10.204968 -21.82047842 9.61000973 -20.10546875 9.04296875 C-16.99063101 7.99685343 -13.97285741 6.81972546 -10.9375 5.5625 C-9.93589844 5.15128906 -8.93429687 4.74007812 -7.90234375 4.31640625 C-4.95791442 3.05908799 -4.95791442 3.05908799 -2.25390625 1.27734375 C-1.51011719 0.85582031 -0.76632812 0.43429688 0 0 Z " fill="#2791AB" transform="translate(422,214)"/>
<path d="M0 0 C0 0.66 0 1.32 0 2 C1.32 2 2.64 2 4 2 C4 2.99 4 3.98 4 5 C3.34 5 2.68 5 2 5 C1.67 6.98 1.34 8.96 1 11 C0.34 11 -0.32 11 -1 11 C-1 11.66 -1 12.32 -1 13 C-2.09957031 12.855625 -3.19914062 12.71125 -4.33203125 12.5625 C-26.88711166 9.42507509 -26.88711166 9.42507509 -48 16 C-48.99 16 -49.98 16 -51 16 C-50.67 14.68 -50.34 13.36 -50 12 C-47.36 11.67 -44.72 11.34 -42 11 C-42.66 9.68 -43.32 8.36 -44 7 C-43.01 6.01 -42.02 5.02 -41 4 C-43.41645782 3.83312552 -43.41645782 3.83312552 -46 4 C-46.66 4.66 -47.32 5.32 -48 6 C-49.96326944 6.03272116 -51.92781807 6.05763272 -53.890625 6.00390625 C-56.6646233 5.99876922 -59.28579683 6.45715937 -62 7 C-45.64046935 -3.90635377 -18.56896765 -3.33703187 0 0 Z " fill="#389FB9" transform="translate(268,135)"/>
<path d="M0 0 C2.0625 0.4375 2.0625 0.4375 4 1 C4.37949914 7.63420723 3.8498973 13.86815401 2.625 20.375 C2.49891357 21.05240234 2.37282715 21.72980469 2.24291992 22.42773438 C0.34562136 31.98169194 0.34562136 31.98169194 -3.3125 34.75 C-5.9158695 35.96086954 -8.16753615 36.59536231 -11 37 C-13.56786548 32.57756501 -12.71809676 29.48856529 -11.5078125 24.79296875 C-11.34023438 24.20128906 -11.17265625 23.60960937 -11 23 C-13.31 23.33 -15.62 23.66 -18 24 C-17.484375 23.62875 -16.96875 23.2575 -16.4375 22.875 C-15.633125 22.25625 -14.82875 21.6375 -14 21 C-13.44441406 20.57460938 -12.88882812 20.14921875 -12.31640625 19.7109375 C-5.8300975 14.4939924 -3.07881315 8.99543521 -1 1 C-0.67 0.67 -0.34 0.34 0 0 Z " fill="#63D2EE" transform="translate(293,244)"/>
<path d="M0 0 C0.99 0.33 1.98 0.66 3 1 C1.02 4.63 -0.96 8.26 -3 12 C-0.33086848 11.0900688 2.33513611 10.17228234 5 9.25 C5.74378906 8.99734375 6.48757813 8.7446875 7.25390625 8.484375 C11.75389867 6.91916024 15.96886508 5.12297331 20.17578125 2.8828125 C23.02633591 1.50331495 25.93342197 0.76664451 29 0 C28.34 1.32 27.68 2.64 27 4 C26.34 4 25.68 4 25 4 C25 4.66 25 5.32 25 6 C23.35443434 7.03435556 21.6829392 8.02763513 20 9 C19.175 9.66 18.35 10.32 17.5 11 C13.23799574 14.4096034 9.22612919 16.42000746 4 18 C4 18.66 4 19.32 4 20 C2.37282472 20.69241501 0.74543855 21.38433728 -0.8828125 22.07421875 C-2.30598395 22.69652804 -3.71771496 23.34561551 -5.1171875 24.01953125 C-10.64408501 26.64529928 -15.96327549 28.04218985 -22 29 C-21.505 27.515 -21.505 27.515 -21 26 C-20.29875 25.773125 -19.5975 25.54625 -18.875 25.3125 C-15.0766248 23.57845915 -13.32709478 20.97129072 -10.84375 17.6796875 C-9 16 -9 16 -6.28125 15.7578125 C-5.5284375 15.83773437 -4.775625 15.91765625 -4 16 C-4.66 14.35 -5.32 12.7 -6 11 C-5.34 10.34 -4.68 9.68 -4 9 C-3.83318891 5.91652174 -3.83318891 5.91652174 -4 3 C-2.68 3 -1.36 3 0 3 C0 2.01 0 1.02 0 0 Z " fill="#28ADCB" transform="translate(394,198)"/>
<path d="M0 0 C0.95465783 2.16967689 1.14401212 3.56328793 0.3984375 5.82421875 C-0.35870385 7.5684743 -1.17609198 9.28627131 -2 11 C-2.66 11 -3.32 11 -4 11 C-4 12.65 -4 14.3 -4 16 C-3.01 15.34 -2.02 14.68 -1 14 C-1 14.66 -1 15.32 -1 16 C0.32 16.33 1.64 16.66 3 17 C2.67 17.99 2.34 18.98 2 20 C2.66 20.33 3.32 20.66 4 21 C4 19.35 4 17.7 4 16 C4.99 15.67 5.98 15.34 7 15 C7 13.35 7 11.7 7 10 C8.32 9.67 9.64 9.34 11 9 C11.33 7.68 11.66 6.36 12 5 C12.66 5 13.32 5 14 5 C13.45048177 9.57645648 11.45767256 12.8935754 9 16.6875 C6.35684469 20.76113132 6.35684469 20.76113132 4 25 C3.34 25 2.68 25 2 25 C1.9071875 25.99 1.9071875 25.99 1.8125 27 C0.85751424 30.52610128 -0.73748197 33.02994375 -2.73046875 36.0625 C-3.7818901 37.66713074 -4.74697413 39.32795402 -5.6875 41 C-6.120625 41.66 -6.55375 42.32 -7 43 C-7.66 43 -8.32 43 -9 43 C-9.33 44.32 -9.66 45.64 -10 47 C-10.8125 43.8125 -10.8125 43.8125 -11 40 C-8.6875 37.0625 -8.6875 37.0625 -6 35 C-5.34 35 -4.68 35 -4 35 C-4.55350771 31.67895374 -5.14091219 28.83755508 -7 26 C-9.0335948 24.73195434 -9.0335948 24.73195434 -11 24 C-10.896875 24.66 -10.79375 25.32 -10.6875 26 C-11.14732242 30.41429526 -13.50741828 33.41246273 -16 37 C-16.99 36.67 -17.98 36.34 -19 36 C-15.45179327 28.68983914 -11.42771388 21.70513816 -7.33398438 14.68945312 C-4.55666889 9.88403525 -2.04622465 5.16158398 0 0 Z " fill="#26A8C7" transform="translate(407,151)"/>
<path d="M0 0 C2.4375 0.6875 2.4375 0.6875 5 2 C5.8125 4.625 5.8125 4.625 6 7 C7.32 7 8.64 7 10 7 C10 7.66 10 8.32 10 9 C11.32 9.33 12.64 9.66 14 10 C13.77371373 14.37486789 13.51474367 17.8897644 11 21.5625 C7.73981584 24.21139963 7.30571908 24.35210024 3.375 24 C0.15656558 23.47274794 -1.19116931 22.87255379 -4 21 C-4 20.34 -4 19.68 -4 19 C-5.32 18.34 -6.64 17.68 -8 17 C-8 15.68 -8 14.36 -8 13 C-7.34 12.67 -6.68 12.34 -6 12 C-6 12.99 -6 13.98 -6 15 C-5.01 15 -4.02 15 -3 15 C-2.95101562 14.08476562 -2.90203125 13.16953125 -2.8515625 12.2265625 C-2.77679688 11.03804688 -2.70203125 9.84953125 -2.625 8.625 C-2.55539063 7.44164062 -2.48578125 6.25828125 -2.4140625 5.0390625 C-2 2 -2 2 0 0 Z " fill="#C5EDF6" transform="translate(210,254)"/>
<path d="M0 0 C4.875 0.875 4.875 0.875 6 2 C6 1.67 6 1.34 6 1 C15.3412692 0.38673965 24.63250185 -0.1820896 34 0 C34.144375 0.78375 34.28875 1.5675 34.4375 2.375 C34.87798925 4.96421018 34.87798925 4.96421018 36 7 C35.01 7 34.02 7 33 7 C33 7.66 33 8.32 33 9 C28.58334712 9.02902168 24.16671877 9.04680608 19.75 9.0625 C17.86861328 9.07506836 17.86861328 9.07506836 15.94921875 9.08789062 C14.14130859 9.09272461 14.14130859 9.09272461 12.296875 9.09765625 C10.63156738 9.10551147 10.63156738 9.10551147 8.93261719 9.11352539 C4.28686984 8.93368252 4.28686984 8.93368252 2 8 C1.67 7.01 1.34 6.02 1 5 C0.01 4.67 -0.98 4.34 -2 4 C-1.34 2.68 -0.68 1.36 0 0 Z " fill="#60C1DA" transform="translate(326,239)"/>
<path d="M0 0 C1.65 0 3.3 0 5 0 C5 0.99 5 1.98 5 3 C5.99 3.33 6.98 3.66 8 4 C7.67 5.32 7.34 6.64 7 8 C7.66 8 8.32 8 9 8 C9.12375 8.61875 9.2475 9.2375 9.375 9.875 C9.87197356 12.19120832 9.87197356 12.19120832 12 14 C11.34 14 10.68 14 10 14 C9.896875 14.61875 9.79375 15.2375 9.6875 15.875 C9 18 9 18 6 20 C5.63837971 21.32594105 5.30271961 22.65938457 5 24 C4.34 24.33 3.68 24.66 3 25 C2.34444881 27.52733235 2.34444881 27.52733235 2 30 C1.01 29.67 0.02 29.34 -1 29 C-0.34 28.67 0.32 28.34 1 28 C1 27.34 1 26.68 1 26 C-1.475 25.01 -1.475 25.01 -4 24 C-4.99 24.99 -5.98 25.98 -7 27 C-6.74438677 24.6568787 -6.40729228 22.32156597 -6 20 C-5.34 19.67 -4.68 19.34 -4 19 C-1.46360365 12.88352268 -0.52851741 6.55361587 0 0 Z " fill="#26B1D5" transform="translate(409,142)"/>
<path d="M0 0 C0.92554688 -0.00128906 1.85109375 -0.00257813 2.8046875 -0.00390625 C4.24328125 0.00189453 4.24328125 0.00189453 5.7109375 0.0078125 C7.16113281 0.00201172 7.16113281 0.00201172 8.640625 -0.00390625 C9.56359375 -0.00261719 10.4865625 -0.00132812 11.4375 0 C12.70327881 0.00169189 12.70327881 0.00169189 13.99462891 0.00341797 C16.0859375 0.1328125 16.0859375 0.1328125 18.0859375 1.1328125 C17.7559375 3.7728125 17.4259375 6.4128125 17.0859375 9.1328125 C13.19054293 9.33029141 9.29461734 9.51404279 5.3984375 9.6953125 C4.29564453 9.75138672 3.19285156 9.80746094 2.05664062 9.86523438 C0.98994141 9.91357422 -0.07675781 9.96191406 -1.17578125 10.01171875 C-2.15506592 10.0588501 -3.13435059 10.10598145 -4.14331055 10.15454102 C-6.87198955 10.13314244 -9.26485313 9.76075758 -11.9140625 9.1328125 C-11.9140625 8.1428125 -11.9140625 7.1528125 -11.9140625 6.1328125 C-11.2540625 6.1328125 -10.5940625 6.1328125 -9.9140625 6.1328125 C-9.5840625 4.4828125 -9.2540625 2.8328125 -8.9140625 1.1328125 C-5.8757136 0.25031543 -3.15944615 0.00421179 0 0 Z " fill="#63CDE8" transform="translate(239.9140625,135.8671875)"/>
<path d="M0 0 C-1.36983503 3.16115776 -1.9890638 3.9927092 -5 6 C-4.67 6.66 -4.34 7.32 -4 8 C-4.26542299 9.57118208 -4.59015109 11.13237581 -4.9375 12.6875 C-6.32768702 20.16890123 -6.08177969 27.57995213 -5.83764648 35.16479492 C-5.81774658 36.13263916 -5.79784668 37.1004834 -5.77734375 38.09765625 C-5.74890381 38.96914307 -5.72046387 39.84062988 -5.69116211 40.73852539 C-6.06384879 43.46753467 -6.88981012 44.30512267 -9 46 C-9.05871491 41.70839209 -9.09383483 37.41688942 -9.125 33.125 C-9.14175781 31.92101562 -9.15851563 30.71703125 -9.17578125 29.4765625 C-9.21428168 22.39248309 -8.76050885 15.87332825 -7 9 C-9.91819239 9.61846464 -12.83441022 10.24448135 -15.75 10.875 C-16.575 11.04902344 -17.4 11.22304687 -18.25 11.40234375 C-19.04921875 11.57636719 -19.8484375 11.75039062 -20.671875 11.9296875 C-21.4050293 12.08679199 -22.13818359 12.24389648 -22.89355469 12.40576172 C-25.051413 12.9420292 -25.051413 12.9420292 -27.09863281 14.05908203 C-29.49646463 15.24568242 -31.36049195 15.14663934 -34 15 C-34 14.34 -34 13.68 -34 13 C-7.35483871 0 -7.35483871 0 0 0 Z " fill="#60A4B6" transform="translate(174,175)"/>
<path d="M0 0 C7.88884299 2.16306985 15.07141437 4.80796907 22.3203125 8.60546875 C25.48739475 10.25364421 28.69753161 11.6489902 32 13 C32 13.66 32 14.32 32 15 C32.804375 15.0825 33.60875 15.165 34.4375 15.25 C38.01169343 16.00246178 40.79080518 17.14938344 44.078125 18.6796875 C48.03363109 20.46706859 52.04588764 22.10550086 56.0625 23.75 C56.83762939 24.06791504 57.61275879 24.38583008 58.41137695 24.71337891 C60.27381334 25.47665546 62.13684444 26.23848062 64 27 C60.06329512 28.31223496 57.87511856 27.24296256 54 26 C53.67 26.66 53.34 27.32 53 28 C53.99 28 54.98 28 56 28 C55.67 28.66 55.34 29.32 55 30 C48.27236875 26.70452374 41.65780582 23.2299879 35.078125 19.6484375 C33.02973264 18.5514558 30.96556258 17.48343025 28.88671875 16.4453125 C26.39568258 15.198109 23.97919883 13.88350465 21.5625 12.5 C17.7983644 10.39208407 13.97865746 8.67522419 10 7 C6.64862199 5.36866747 3.3216643 3.69090758 0 2 C0 1.34 0 0.68 0 0 Z " fill="#61848B" transform="translate(223,199)"/>
<path d="M0 0 C24.91699605 0.91699605 24.91699605 0.91699605 29 5 C29.05415057 7.56071161 29.0444233 10.08959062 28.984375 12.6484375 C28.96787903 13.4167691 28.95138306 14.18510071 28.93438721 14.97671509 C28.89681917 16.60596541 28.85626449 18.23514912 28.81298828 19.86425781 C28.75044298 22.35734281 28.70890273 24.85022922 28.66796875 27.34375 C28.62890495 28.92451185 28.58858154 30.50524317 28.546875 32.0859375 C28.53734802 32.83289886 28.52782104 33.57986023 28.51800537 34.34945679 C28.34630691 39.54975693 28.34630691 39.54975693 26.46582031 41.99462891 C25.98209961 42.32640137 25.49837891 42.65817383 25 43 C23.515 42.505 23.515 42.505 22 42 C20.80742614 39.61485229 20.79228342 37.8441201 20.625 35.1875 C20.25359407 31.03014976 19.4938611 28.42905902 17 25 C16.67 24.01 16.34 23.02 16 22 C16.66 22 17.32 22 18 22 C18 22.66 18 23.32 18 24 C18.99 24 19.98 24 21 24 C21.66 24.66 22.32 25.32 23 26 C23.99 25.34 24.98 24.68 26 24 C26.38024775 19.34854408 26.38024775 19.34854408 25 15 C25.33 14.01 25.66 13.02 26 12 C26.66 12 27.32 12 28 12 C28 10.35 28 8.7 28 7 C25.03 6.505 25.03 6.505 22 6 C21.67 6.99 21.34 7.98 21 9 C20.443125 8.38125 19.88625 7.7625 19.3125 7.125 C15.31080457 3.44776636 10.95893975 2.68599073 5.6875 1.875 C4.61886719 1.70742187 3.55023438 1.53984375 2.44921875 1.3671875 C1.64097656 1.24601563 0.83273437 1.12484375 0 1 C0 0.67 0 0.34 0 0 Z " fill="#2AA1C1" transform="translate(268,136)"/>
<path d="M0 0 C1.670625 0.061875 1.670625 0.061875 3.375 0.125 C2.694375 0.888125 2.01375 1.65125 1.3125 2.4375 C0.673125 3.324375 0.03375 4.21125 -0.625 5.125 C-0.295 6.115 0.035 7.105 0.375 8.125 C-1.295625 8.5890625 -1.295625 8.5890625 -3 9.0625 C-6.4195155 9.94826483 -6.4195155 9.94826483 -8.625 11.125 C-8.74875 11.74375 -8.8725 12.3625 -9 13 C-9.83269751 15.83117154 -11.1456715 16.62237667 -13.625 18.125 C-14.285 18.125 -14.945 18.125 -15.625 18.125 C-15.625 18.785 -15.625 19.445 -15.625 20.125 C-16.285 20.125 -16.945 20.125 -17.625 20.125 C-17.955 19.135 -18.285 18.145 -18.625 17.125 C-17.305 16.465 -15.985 15.805 -14.625 15.125 C-14.625 14.465 -14.625 13.805 -14.625 13.125 C-15.615 12.795 -16.605 12.465 -17.625 12.125 C-16.965 9.815 -16.305 7.505 -15.625 5.125 C-18.59565509 5.46727572 -18.59565509 5.46727572 -21.625 6.125 C-21.955 6.785 -22.285 7.445 -22.625 8.125 C-23.945 7.795 -25.265 7.465 -26.625 7.125 C-21.23360742 3.4184176 -15.7061606 1.97267679 -9.25 2.125 C-8.05375 2.125 -6.8575 2.125 -5.625 2.125 C-3.625 0.125 -3.625 0.125 0 0 Z " fill="#7EDDF5" transform="translate(225.625,137.875)"/>
<path d="M0 0 C16.83 0 33.66 0 51 0 C51.495 1.485 51.495 1.485 52 3 C48.375 6 48.375 6 45 6 C45.495 8.97 45.495 8.97 46 12 C43.525 11.01 43.525 11.01 41 10 C41.33 9.01 41.66 8.02 42 7 C41.34 6.67 40.68 6.34 40 6 C40.66 5.01 41.32 4.02 42 3 C41.03175293 2.97494385 40.06350586 2.9498877 39.06591797 2.92407227 C35.45398015 2.82949294 31.84221215 2.72939817 28.23046875 2.62768555 C26.67093901 2.58452692 25.11136781 2.54283944 23.55175781 2.50268555 C21.30260758 2.44451787 19.05366241 2.38096077 16.8046875 2.31640625 C16.1138205 2.29969376 15.42295349 2.28298126 14.71115112 2.26576233 C10.72636037 2.14538407 6.91541988 1.74845781 3 1 C3 1.66 3 2.32 3 3 C5.64 3 8.28 3 11 3 C11.33 3.99 11.66 4.98 12 6 C12.66 6 13.32 6 14 6 C13.67 6.66 13.34 7.32 13 8 C7.06 6.515 7.06 6.515 1 5 C0.67 3.35 0.34 1.7 0 0 Z " fill="#5DBDD6" transform="translate(300,137)"/>
<path d="M0 0 C3.0425389 0.78833922 6.08386283 1.58127212 9.125 2.375 C10.40890625 2.70757812 10.40890625 2.70757812 11.71875 3.046875 C16.20457819 4.2200916 20.62103788 5.46377395 25 7 C25 7.99 25 8.98 25 10 C26.32 10 27.64 10 29 10 C29.33 11.32 29.66 12.64 30 14 C24.18790717 15.93736428 17.59009395 13.00670039 12 11 C12 10.34 12 9.68 12 9 C10.63875 8.8453125 10.63875 8.8453125 9.25 8.6875 C5.96928156 7.99350187 4.39110905 7.29914332 2 5 C2 4.34 2 3.68 2 3 C1.01 3 0.02 3 -1 3 C-0.67 2.01 -0.34 1.02 0 0 Z " fill="#4E8F9F" transform="translate(277,224)"/>
<path d="M0 0 C0.33 0.99 0.66 1.98 1 3 C0.01 3.33 -0.98 3.66 -2 4 C-2 6.31 -2 8.62 -2 11 C-1.01 11.33 -0.02 11.66 1 12 C1.33 13.65 1.66 15.3 2 17 C-4.47539828 16.00468562 -10.05780194 14.74255295 -16 12 C-18.31867332 11.25454882 -20.64468203 10.62488028 -23 10 C-20.38058783 8.25372522 -18.96175123 7.61277612 -16 7 C-16 6.34 -16 5.68 -16 5 C-15.34 5.33 -14.68 5.66 -14 6 C-13.01 6.33 -12.02 6.66 -11 7 C-11 7.66 -11 8.32 -11 9 C-9.68 9.33 -8.36 9.66 -7 10 C-6.67 9.01 -6.34 8.02 -6 7 C-6.33 6.34 -6.66 5.68 -7 5 C-6.67 4.34 -6.34 3.68 -6 3 C-5.34 3 -4.68 3 -4 3 C-4 2.34 -4 1.68 -4 1 C-2.68 0.67 -1.36 0.34 0 0 Z " fill="#8DE2F8" transform="translate(243,179)"/>
<path d="M0 0 C1.3271261 3.9813783 1.06915913 7.85045227 1 12 C1.66 12 2.32 12 3 12 C3 13.32 3 14.64 3 16 C3.66 16 4.32 16 5 16 C5 14.35 5 12.7 5 11 C5.66 10.67 6.32 10.34 7 10 C7.66 9.01 8.32 8.02 9 7 C8.91253716 8.43861294 8.80434652 9.87597508 8.6875 11.3125 C8.62949219 12.11300781 8.57148438 12.91351563 8.51171875 13.73828125 C7.90691103 16.41143904 7.12257325 17.31427596 5 19 C2.06018976 20.39640986 0.27763744 21 -3 21 C-5.56786548 16.57756501 -4.71809676 13.48856529 -3.5078125 8.79296875 C-3.34023438 8.20128906 -3.17265625 7.60960937 -3 7 C-5.31 7.33 -7.62 7.66 -10 8 C-9.195625 7.4121875 -9.195625 7.4121875 -8.375 6.8125 C-5.50791468 4.6244612 -2.76035432 2.32120704 0 0 Z " fill="#50B5CD" transform="translate(285,260)"/>
<path d="M0 0 C15.18 0 30.36 0 46 0 C46 1.32 46 2.64 46 4 C42.46291091 5.92932132 39.1451973 6.68448271 35.21875 7.4375 C32.93169625 8.01731644 31.06575768 8.87322308 29 10 C29.33 8.68 29.66 7.36 30 6 C35.445 5.01 35.445 5.01 41 4 C41 3.34 41 2.68 41 2 C39.95545654 2.00523682 38.91091309 2.01047363 37.8347168 2.01586914 C33.96021379 2.03396598 30.08571452 2.04544918 26.21118164 2.05493164 C24.53409192 2.05996113 22.85700658 2.06678548 21.17993164 2.07543945 C18.769683 2.08756559 16.35949232 2.09324215 13.94921875 2.09765625 C13.19912033 2.10281754 12.44902191 2.10797882 11.67619324 2.11329651 C8.51048768 2.11363785 6.02662028 2.00887343 3 1 C4.32 2.98 5.64 4.96 7 7 C2.25 5.125 2.25 5.125 0 4 C0 2.68 0 1.36 0 0 Z " fill="#20738A" transform="translate(401,137)"/>
<path d="M0 0 C2.4375 0.375 2.4375 0.375 5 1 C6.43294255 3.86588511 5.56870553 5.90371436 5 9 C5 9.99 5 10.98 5 12 C4.48049143 17.09118395 3.26894166 21.7182126 1.71875 26.5703125 C0.9976744 29.00786154 0.49852071 31.50739646 0 34 C-4.29 34 -8.58 34 -13 34 C-13 32.68 -13 31.36 -13 30 C-9.04 29.34 -5.08 28.68 -1 28 C0.50075784 18.99545298 1.48082214 10.11293762 2 1 C1.34 0.67 0.68 0.34 0 0 Z " fill="#3E91A6" transform="translate(359,246)"/>
<path d="M0 0 C-0.020625 0.721875 -0.04125 1.44375 -0.0625 2.1875 C-0.00170199 4.92341036 0.42332911 7.33289712 1 10 C1 10.66 1 11.32 1 12 C1.495 11.835 1.99 11.67 2.5 11.5 C6.03444089 10.79311182 9.39690701 10.93994845 13 11 C13 11.33 13 11.66 13 12 C4.42 12.99 -4.16 13.98 -13 15 C-13 10.51051566 -12.62632372 10.07365969 -9.75 6.9375 C-9.14671875 6.26589844 -8.5434375 5.59429687 -7.921875 4.90234375 C-2.96919918 0 -2.96919918 0 0 0 Z " fill="#87DEF4" transform="translate(192,151)"/>
<path d="M0 0 C6.49226262 -0.35737225 11.41753889 0.80080396 17.5 3 C18.32242188 3.28617188 19.14484375 3.57234375 19.9921875 3.8671875 C21.99866411 4.5671212 23.99991026 5.28201907 26 6 C26 6.66 26 7.32 26 8 C22.7 8.33 19.4 8.66 16 9 C16 8.34 16 7.68 16 7 C15.34 6.67 14.68 6.34 14 6 C14 6.99 14 7.98 14 9 C13.38125 9.28875 12.7625 9.5775 12.125 9.875 C9.86674235 10.93720042 9.86674235 10.93720042 8 13 C8 11.35 8 9.7 8 8 C8.66 7.67 9.32 7.34 10 7 C10 6.34 10 5.68 10 5 C8.68 5 7.36 5 6 5 C6 5.66 6 6.32 6 7 C4.68 7.33 3.36 7.66 2 8 C2.33 6.35 2.66 4.7 3 3 C3.66 3 4.32 3 5 3 C5 2.34 5 1.68 5 1 C3.35 1 1.7 1 0 1 C0 0.67 0 0.34 0 0 Z " fill="#7AD8EE" transform="translate(233,175)"/>
<path d="M0 0 C0.33 0.99 0.66 1.98 1 3 C-0.32 3 -1.64 3 -3 3 C-3.33 4.65 -3.66 6.3 -4 8 C-4.66 8 -5.32 8 -6 8 C-6 8.99 -6 9.98 -6 11 C-4.35 11 -2.7 11 -1 11 C-3.30587304 13.30587304 -4.77098633 13.68287595 -7.875 14.5625 C-8.73867187 14.81128906 -9.60234375 15.06007812 -10.4921875 15.31640625 C-12.65557569 15.90611487 -14.8217771 16.46810836 -17 17 C-16.67 15.68 -16.34 14.36 -16 13 C-13.36 12.67 -10.72 12.34 -8 12 C-8.66 10.68 -9.32 9.36 -10 8 C-9.01 7.01 -8.02 6.02 -7 5 C-9.41645782 4.83312552 -9.41645782 4.83312552 -12 5 C-12.66 5.66 -13.32 6.32 -14 7 C-15.96326944 7.03272116 -17.92781807 7.05763272 -19.890625 7.00390625 C-22.6646233 6.99876922 -25.28579683 7.45715937 -28 8 C-21.84006955 3.8933797 -15.19427075 2.45335923 -8 1.3125 C-7.22527344 1.18294922 -6.45054687 1.05339844 -5.65234375 0.91992188 C-3.76941199 0.60609991 -1.88486295 0.30200645 0 0 Z " fill="#4EB8D5" transform="translate(234,134)"/>
<path d="M0 0 C0.66 0 1.32 0 2 0 C2 0.66 2 1.32 2 2 C2.66 2 3.32 2 4 2 C4 2.66 4 3.32 4 4 C4.99 4.33 5.98 4.66 7 5 C6.4380235 8.93383553 5.50383287 11.87020891 3 15 C0.3125 15.3125 0.3125 15.3125 -2 15 C-2 14.34 -2 13.68 -2 13 C-7.55493924 11.97296252 -7.55493924 11.97296252 -13 13 C-13.28875 12.360625 -13.5775 11.72125 -13.875 11.0625 C-14.82823451 8.84793921 -14.82823451 8.84793921 -17 8 C-14.20775806 8.3079239 -11.41628573 8.62112437 -8.625 8.9375 C-7.43390625 9.06801758 -7.43390625 9.06801758 -6.21875 9.20117188 C-0.2265625 9.88671875 -0.2265625 9.88671875 2 11 C0.68 8.36 -0.64 5.72 -2 3 C-1.34 3 -0.68 3 0 3 C0 2.01 0 1.02 0 0 Z " fill="#3CC1DF" transform="translate(354,201)"/>
<path d="M0 0 C0.66 0.33 1.32 0.66 2 1 C2 1.66 2 2.32 2 3 C3.32 3.33 4.64 3.66 6 4 C6 4.66 6 5.32 6 6 C6.78375 6.144375 7.5675 6.28875 8.375 6.4375 C11 7 11 7 13 8 C13 8.99 13 9.98 13 11 C13.99 11.33 14.98 11.66 16 12 C13.78065836 15.32901247 12.65316671 15.75023244 9 17 C9.33 18.98 9.66 20.96 10 23 C8.5629191 23.05422947 7.12524538 23.09289723 5.6875 23.125 C4.48673828 23.15980469 4.48673828 23.15980469 3.26171875 23.1953125 C1 23 1 23 -2 21 C-1.236875 20.855625 -0.47375 20.71125 0.3125 20.5625 C3.08172908 20.0367406 3.08172908 20.0367406 6 19 C6.66 15.37 7.32 11.74 8 8 C7.01 7.67 6.02 7.34 5 7 C5 6.34 5 5.68 5 5 C3.68 5 2.36 5 1 5 C0.67 3.35 0.34 1.7 0 0 Z " fill="#8EBEC9" transform="translate(215,256)"/>
<path d="M0 0 C-0.66 1.32 -1.32 2.64 -2 4 C-2.66 4 -3.32 4 -4 4 C-4 4.66 -4 5.32 -4 6 C-5.64556566 7.03435556 -7.3170608 8.02763513 -9 9 C-9.845625 9.70125 -10.69125 10.4025 -11.5625 11.125 C-13.85129043 12.88560802 -15.19281575 13.58412085 -18 14 C-19 12 -19 12 -19 11 C-21.64 11 -24.28 11 -27 11 C-23.80503482 8.87002321 -20.94301062 7.85741117 -17.3125 6.625 C-12.14718625 4.84351286 -5.25224092 0 0 0 Z " fill="#337F8F" transform="translate(423,198)"/>
<path d="M0 0 C0 0.66 0 1.32 0 2 C0.99 2.66 1.98 3.32 3 4 C1.12054688 4.39832031 1.12054688 4.39832031 -0.796875 4.8046875 C-2.44797774 5.16117559 -4.09901607 5.51796206 -5.75 5.875 C-6.575 6.04902344 -7.4 6.22304687 -8.25 6.40234375 C-9.04921875 6.57636719 -9.8484375 6.75039062 -10.671875 6.9296875 C-11.4050293 7.08679199 -12.13818359 7.24389648 -12.89355469 7.40576172 C-15.051413 7.9420292 -15.051413 7.9420292 -17.09863281 9.05908203 C-19.49646463 10.24568242 -21.36049195 10.14663934 -24 10 C-24 9.34 -24 8.68 -24 8 C-21.23012967 6.68543451 -18.45916513 5.3732713 -15.6875 4.0625 C-14.90181641 3.68931641 -14.11613281 3.31613281 -13.30664062 2.93164062 C-12.54931641 2.57392578 -11.79199219 2.21621094 -11.01171875 1.84765625 C-10.31522217 1.51773682 -9.61872559 1.18781738 -8.90112305 0.84790039 C-5.43726095 -0.69698122 -3.6004437 -1.11737908 0 0 Z " fill="#4B8B9D" transform="translate(164,180)"/>
<path d="M0 0 C0.33 0.66 0.66 1.32 1 2 C0.01 2.99 -0.98 3.98 -2 5 C-1.01 5.33 -0.02 5.66 1 6 C1.33 8.97 1.66 11.94 2 15 C-1 17 -1 17 -5 17 C-5 16.34 -5 15.68 -5 15 C-5.66 14.67 -6.32 14.34 -7 14 C-6.34 13.01 -5.68 12.02 -5 11 C-5.66 10.67 -6.32 10.34 -7 10 C-6.875 6.6875 -6.875 6.6875 -6 3 C-2.9375 1.0625 -2.9375 1.0625 0 0 Z " fill="#A3E7F8" transform="translate(198,146)"/>
<path d="M0 0 C0.66 0.33 1.32 0.66 2 1 C0.8135662 4.55930139 -0.03155317 4.93504182 -3.125 6.875 C-7.17915133 9.46965685 -11.10037086 12.17899169 -15 15 C-15.66 13.68 -16.32 12.36 -17 11 C-18.98 11 -20.96 11 -23 11 C-23 10.67 -23 10.34 -23 10 C-22.13503906 9.72027344 -21.27007812 9.44054687 -20.37890625 9.15234375 C-17.17607493 8.06004868 -14.06333654 6.85720133 -10.9375 5.5625 C-9.93589844 5.15128906 -8.93429687 4.74007812 -7.90234375 4.31640625 C-4.95791442 3.05908799 -4.95791442 3.05908799 -2.25390625 1.27734375 C-1.51011719 0.85582031 -0.76632812 0.43429688 0 0 Z " fill="#2B8BA6" transform="translate(422,214)"/>
<path d="M0 0 C2.44547499 2.23220682 3.94748094 4.45905074 5.5 7.375 C6.89120912 9.9677079 8.28995271 12.45425924 9.875 14.9375 C10.24625 15.618125 10.6175 16.29875 11 17 C10.67 17.66 10.34 18.32 10 19 C8.35 17.68 6.7 16.36 5 15 C2.525 16.485 2.525 16.485 0 18 C-0.33 16.35 -0.66 14.7 -1 13 C-0.34 13 0.32 13 1 13 C0.649375 12.34 0.29875 11.68 -0.0625 11 C-1.32853409 6.9486909 -0.70614482 4.16625445 0 0 Z " fill="#3EBCE0" transform="translate(361,177)"/>
<path d="M0 0 C0.33 2.31 0.66 4.62 1 7 C2.32 7 3.64 7 5 7 C5.33 5.35 5.66 3.7 6 2 C6.66 2 7.32 2 8 2 C8 3.98 8 5.96 8 8 C7.34 8 6.68 8 6 8 C5.9175 8.598125 5.835 9.19625 5.75 9.8125 C4.78423221 12.62932273 3.51131433 13.47799132 1 15 C0.34 15 -0.32 15 -1 15 C-1 15.66 -1 16.32 -1 17 C-1.66 17 -2.32 17 -3 17 C-3.33 16.01 -3.66 15.02 -4 14 C-2.68 13.34 -1.36 12.68 0 12 C0 11.34 0 10.68 0 10 C-0.99 9.67 -1.98 9.34 -3 9 C-2.34 6.69 -1.68 4.38 -1 2 C-3.97065509 2.34227572 -3.97065509 2.34227572 -7 3 C-7.33 3.66 -7.66 4.32 -8 5 C-9.32 4.67 -10.64 4.34 -12 4 C-8.16846836 1.40808154 -4.69881669 0 0 0 Z " fill="#9BC9D3" transform="translate(211,141)"/>
<path d="M0 0 C14.52 0 29.04 0 44 0 C44 0.33 44 0.66 44 1 C39.12554802 1.16833464 34.25092258 1.32881405 29.37597656 1.48217773 C27.71933116 1.53538316 26.06275193 1.59069413 24.40625 1.64819336 C22.01837428 1.73070709 19.63035912 1.80552108 17.2421875 1.87890625 C16.50757294 1.90594131 15.77295837 1.93297638 15.01608276 1.96083069 C10.87582382 2.07964692 7.05896893 1.82910163 3 1 C3 1.66 3 2.32 3 3 C5.64 3 8.28 3 11 3 C11.33 3.99 11.66 4.98 12 6 C12.66 6 13.32 6 14 6 C13.67 6.66 13.34 7.32 13 8 C7.06 6.515 7.06 6.515 1 5 C0.67 3.35 0.34 1.7 0 0 Z " fill="#3B7989" transform="translate(300,137)"/>
<path d="M0 0 C24.91699605 0.91699605 24.91699605 0.91699605 29 5 C29.26865672 13.19402985 29.26865672 13.19402985 28 17 C27.01 16.67 26.02 16.34 25 16 C25.33 14.68 25.66 13.36 26 12 C26.66 12 27.32 12 28 12 C28 10.35 28 8.7 28 7 C25.03 6.505 25.03 6.505 22 6 C21.67 6.99 21.34 7.98 21 9 C20.443125 8.38125 19.88625 7.7625 19.3125 7.125 C15.31080457 3.44776636 10.95893975 2.68599073 5.6875 1.875 C4.61886719 1.70742187 3.55023438 1.53984375 2.44921875 1.3671875 C1.64097656 1.24601563 0.83273437 1.12484375 0 1 C0 0.67 0 0.34 0 0 Z " fill="#2990AB" transform="translate(268,136)"/>
<path d="M0 0 C-0.33 2.31 -0.66 4.62 -1 7 C-0.01 7 0.98 7 2 7 C1.67 8.32 1.34 9.64 1 11 C-1.31 11.33 -3.62 11.66 -6 12 C-6.66 10.68 -7.32 9.36 -8 8 C-7.34 8 -6.68 8 -6 8 C-6 7.34 -6 6.68 -6 6 C-6.66 6 -7.32 6 -8 6 C-7.75 4.125 -7.75 4.125 -7 2 C-4.41847698 0.27898465 -3.15081975 0 0 0 Z " fill="#D1F6FD" transform="translate(210,143)"/>
<path d="M0 0 C4.95 0 9.9 0 15 0 C14.67 0.66 14.34 1.32 14 2 C13.01 2.33 12.02 2.66 11 3 C10.34 2.67 9.68 2.34 9 2 C8.67 2.99 8.34 3.98 8 5 C7.34 4.34 6.68 3.68 6 3 C5.5875 3.78375 5.175 4.5675 4.75 5.375 C2.94774704 8.07837944 2.11016477 9.15177325 -1 10 C-3.25 9.125 -3.25 9.125 -5 8 C-4.01 8 -3.02 8 -2 8 C-1.34 5.36 -0.68 2.72 0 0 Z " fill="#BFF4FD" transform="translate(198,173)"/>
<path d="M0 0 C0.598125 0.45375 1.19625 0.9075 1.8125 1.375 C3.50590652 2.63295913 5.24477086 3.82984724 7 5 C6.67 7.31 6.34 9.62 6 12 C7.32 11.34 8.64 10.68 10 10 C9 13 9 13 7 14 C7.33 15.32 7.66 16.64 8 18 C7.34 18 6.68 18 6 18 C6 17.34 6 16.68 6 16 C5.01 15.67 4.02 15.34 3 15 C0.36257382 10.45776603 0.37828288 5.12672848 0 0 Z " fill="#7BCBDD" transform="translate(166,221)"/>
<path d="M0 0 C1.8871875 0.433125 1.8871875 0.433125 3.8125 0.875 C9.18101507 2.07180272 14.58344556 3.04830632 20 4 C20 4.33 20 4.66 20 5 C19.16855469 4.98839844 18.33710938 4.97679687 17.48046875 4.96484375 C15.85044922 4.95130859 15.85044922 4.95130859 14.1875 4.9375 C12.56908203 4.92009766 12.56908203 4.92009766 10.91796875 4.90234375 C7.93487831 4.86375234 7.93487831 4.86375234 5 6 C4.67 4.68 4.34 3.36 4 2 C2.68 2 1.36 2 0 2 C0 1.34 0 0.68 0 0 Z M3 5 C4.36125 5.928125 4.36125 5.928125 5.75 6.875 C8.14948817 8.44389611 10.40961612 9.80443821 13 11 C7.17728663 11.59720137 3.0790596 9.528243 -2 7 C-1.360625 6.855625 -0.72125 6.71125 -0.0625 6.5625 C1.97545146 6.18992819 1.97545146 6.18992819 3 5 Z " fill="#398498" transform="translate(302,232)"/>
<path d="M0 0 C2.0625 0.4375 2.0625 0.4375 4 1 C3.67 1.66 3.34 2.32 3 3 C3 4.32 3 5.64 3 7 C2.34 7 1.68 7 1 7 C1 5.68 1 4.36 1 3 C0.34 3 -0.32 3 -1 3 C-0.979375 3.9075 -0.95875 4.815 -0.9375 5.75 C-0.9889755 8.42672588 -1.2215017 10.46988052 -2 13 C-1.01 13 -0.02 13 1 13 C1 12.34 1 11.68 1 11 C1.66 11 2.32 11 3 11 C3 12.32 3 13.64 3 15 C0.66705225 15.04241723 -1.66702567 15.04092937 -4 15 C-4.33 14.67 -4.66 14.34 -5 14 C-4.70951212 11.96658487 -4.41472136 9.93310791 -4.05859375 7.91015625 C-4.03925781 7.27980469 -4.01992187 6.64945313 -4 6 C-4.66 5.34 -5.32 4.68 -6 4 C-5.360625 3.87625 -4.72125 3.7525 -4.0625 3.625 C-3.0415625 3.315625 -3.0415625 3.315625 -2 3 C-1.67 2.34 -1.34 1.68 -1 1 C-0.67 0.67 -0.34 0.34 0 0 Z " fill="#89E0F4" transform="translate(173,177)"/>
<path d="M0 0 C3.2830098 1.6415049 4.27037919 4.82902851 6 8 C7.65 5.36 9.3 2.72 11 0 C12.09898702 3.29696105 11.87124444 4.40494903 11.0625 7.6875 C10.86785156 8.49574219 10.67320312 9.30398437 10.47265625 10.13671875 C10.31667969 10.75160156 10.16070312 11.36648437 10 12 C7.36 12 4.72 12 2 12 C1.896875 11.05125 1.79375 10.1025 1.6875 9.125 C1.31460705 5.70892499 1.31460705 5.70892499 -2 4 C-1.34 2.68 -0.68 1.36 0 0 Z " fill="#2B8AA3" transform="translate(372,196)"/>
<path d="M0 0 C8.12456347 2.27946217 15.59898 4.92359169 23 9 C22.67 9.99 22.34 10.98 22 12 C14.04199322 9.707015 7.18082279 6.05100513 0 2 C0 1.34 0 0.68 0 0 Z " fill="#2C515C" transform="translate(223,199)"/>
<path d="M0 0 C0.66 0.33 1.32 0.66 2 1 C2.99 1.33 3.98 1.66 5 2 C5.268125 2.78375 5.53625 3.5675 5.8125 4.375 C7.42040587 7.92931823 9.48608262 8.54859934 13 10 C11 11 11 11 8.64453125 10.29296875 C7.70996094 9.92816406 6.77539062 9.56335938 5.8125 9.1875 C1.57096561 7.57460074 -2.61758137 6.16864497 -7 5 C-4.38058783 3.25372522 -2.96175123 2.61277612 0 2 C0 1.34 0 0.68 0 0 Z " fill="#8DC4D1" transform="translate(227,184)"/>
<path d="M0 0 C2.4375 0.375 2.4375 0.375 5 1 C6.43294255 3.86588511 5.56870553 5.90371436 5 9 C5 9.99 5 10.98 5 12 C4.29787234 18.55319149 4.29787234 18.55319149 2 22 C0.4943879 14.97381022 1.35942357 8.10547081 2 1 C1.34 0.67 0.68 0.34 0 0 Z " fill="#3EA0BB" transform="translate(359,246)"/>
<path d="M0 0 C1.32 0.33 2.64 0.66 4 1 C4.26442904 8.59498961 3.60881575 15.57359158 2 23 C0.99890485 19.68929162 0.89643866 16.69915231 0.9375 13.25 C0.94652344 12.26515625 0.95554687 11.2803125 0.96484375 10.265625 C0.97644531 9.51796875 0.98804688 8.7703125 1 8 C0.34 8 -0.32 8 -1 8 C-1.625 5.6875 -1.625 5.6875 -2 3 C-1.34 2.01 -0.68 1.02 0 0 Z " fill="#4791A2" transform="translate(293,244)"/>
<path d="M0 0 C0.66 0.66 1.32 1.32 2 2 C1.625 4.125 1.625 4.125 1 6 C1.63808594 6.17015625 2.27617187 6.3403125 2.93359375 6.515625 C3.75988281 6.75796875 4.58617187 7.0003125 5.4375 7.25 C6.26121094 7.48203125 7.08492188 7.7140625 7.93359375 7.953125 C10 9 10 9 10.78515625 11.109375 C10.85605469 11.73328125 10.92695313 12.3571875 11 13 C10.48824219 12.7215625 9.97648437 12.443125 9.44921875 12.15625 C5.71005982 10.39103302 1.79054077 9.15603362 -2.13085938 7.85546875 C-6.89171616 6.21656768 -6.89171616 6.21656768 -8 4 C-6.02 4 -4.04 4 -2 4 C-1.34 2.68 -0.68 1.36 0 0 Z " fill="#4B9BAD" transform="translate(255,194)"/>
<path d="M0 0 C3.04355645 3.77480053 5.36526811 7.91974724 7.75 12.125 C8.17410156 12.85332031 8.59820312 13.58164063 9.03515625 14.33203125 C10.08747764 16.18644777 11.05149458 18.09039837 12 20 C11.67 20.66 11.34 21.32 11 22 C10.34 22 9.68 22 9 22 C8.71125 21.360625 8.4225 20.72125 8.125 20.0625 C7.17176549 17.84793921 7.17176549 17.84793921 5 17 C4.375 14.4375 4.375 14.4375 4 12 C3.01 11.67 2.02 11.34 1 11 C1.33 10.34 1.66 9.68 2 9 C1.3409159 7.33032028 0.67349161 5.66392045 0 4 C0 2.68 0 1.36 0 0 Z " fill="#3993AB" transform="translate(349,155)"/>
<path d="M0 0 C0.33 0.66 0.66 1.32 1 2 C0.67 2.33 0.34 2.66 0 3 C0.99 3 1.98 3 3 3 C3 3.66 3 4.32 3 5 C9.27 4.67 15.54 4.34 22 4 C22 4.33 22 4.66 22 5 C13.42 5.99 4.84 6.98 -4 8 C-4 4 -4 4 -2 1.75 C-1.01 0.88375 -1.01 0.88375 0 0 Z " fill="#4D8B99" transform="translate(183,158)"/>
<path d="M0 0 C0.33 0.99 0.66 1.98 1 3 C0.08476562 3.12117187 -0.83046875 3.24234375 -1.7734375 3.3671875 C-3.55621094 3.61855469 -3.55621094 3.61855469 -5.375 3.875 C-6.55835938 4.03742188 -7.74171875 4.19984375 -8.9609375 4.3671875 C-12.09566659 4.7302585 -12.09566659 4.7302585 -14 7 C-15.96326944 7.03272116 -17.92781807 7.05763272 -19.890625 7.00390625 C-22.6646233 6.99876922 -25.28579683 7.45715937 -28 8 C-21.84006955 3.8933797 -15.19427075 2.45335923 -8 1.3125 C-7.22527344 1.18294922 -6.45054687 1.05339844 -5.65234375 0.91992188 C-3.76941199 0.60609991 -1.88486295 0.30200645 0 0 Z " fill="#5F9BB0" transform="translate(234,134)"/>
<path d="M0 0 C5.6143991 1.56448671 10.86810338 3.16395187 16 6 C15.34 6.66 14.68 7.32 14 8 C9.65093573 7.67176873 5.9657368 6.80260764 2 5 C2 4.34 2 3.68 2 3 C1.01 3 0.02 3 -1 3 C-0.67 2.01 -0.34 1.02 0 0 Z " fill="#90DFF3" transform="translate(277,224)"/>
<path d="M0 0 C0.33 1.32 0.66 2.64 1 4 C1.66 4 2.32 4 3 4 C2.67 6.97 2.34 9.94 2 13 C0.35 13 -1.3 13 -3 13 C-3 12.01 -3 11.02 -3 10 C-3.66 9.67 -4.32 9.34 -5 9 C-3.35 6.03 -1.7 3.06 0 0 Z " fill="#56B4C9" transform="translate(291,250)"/>
<path d="M0 0 C4.80606815 0.51128385 9.02081978 1.57291192 13.578125 3.16796875 C17.67815306 4.57652678 21.84185438 5.77599471 26 7 C26 7.33 26 7.66 26 8 C24.58249437 7.88490339 23.16598831 7.75746342 21.75 7.625 C20.96109375 7.55539063 20.1721875 7.48578125 19.359375 7.4140625 C16.89707981 6.98193785 15.19960284 6.15389001 13 5 C11.00889599 4.61709538 9.00899487 4.27395385 7 4 C7 4.66 7 5.32 7 6 C6.01 6.33 5.02 6.66 4 7 C4 6.34 4 5.68 4 5 C3.34 5 2.68 5 2 5 C1.34 3.35 0.68 1.7 0 0 Z " fill="#478EA0" transform="translate(307,200)"/>
<path d="M0 0 C2.91517292 1.07401108 4.77810176 1.77810176 7 4 C7 5.32 7 6.64 7 8 C8.2065625 8.433125 8.2065625 8.433125 9.4375 8.875 C12 10 12 10 13 12 C12.71887936 14.00800456 12.38932033 16.01014051 12 18 C9.02435843 14.38097647 6.34413214 10.6508061 3.75 6.75 C3.04359375 5.69296875 2.3371875 4.6359375 1.609375 3.546875 C0 1 0 1 0 0 Z " fill="#539DB4" transform="translate(320,153)"/>
<path d="M0 0 C2.7839183 1.39195915 2.97898997 3.15575779 4 6 C4 5.34 4 4.68 4 4 C6.31 4.33 8.62 4.66 11 5 C11 5.33 11 5.66 11 6 C4.09811029 6.83854735 -2.11422188 7.01593448 -9 6 C-6.4345406 3.4345406 -4.52313332 3.45953913 -1 3 C-0.67 2.01 -0.34 1.02 0 0 Z " fill="#35A8C8" transform="translate(361,222)"/>
<path d="M0 0 C1 2 1 2 0.0625 5.125 C-0.288125 6.07375 -0.63875 7.0225 -1 8 C-1.66 8 -2.32 8 -3 8 C-2.896875 8.66 -2.79375 9.32 -2.6875 10 C-3.14732242 14.41429526 -5.50741828 17.41246273 -8 21 C-8.99 20.67 -9.98 20.34 -11 20 C-7.69032985 13.11588609 -3.89654239 6.56720628 0 0 Z " fill="#2A879F" transform="translate(399,167)"/>
<path d="M0 0 C-0.99 0.495 -0.99 0.495 -2 1 C-2.33 1.99 -2.66 2.98 -3 4 C-3.99 4.495 -3.99 4.495 -5 5 C-5 4.34 -5 3.68 -5 3 C-7.35171131 3.59861742 -9.6859378 4.26924352 -12 5 C-12.33 5.66 -12.66 6.32 -13 7 C-15.7283768 7 -18.31654063 6.46668859 -21 6 C-17.43238708 4.09548483 -13.73097413 2.70463719 -9.9375 1.3125 C-8.70902344 0.85488281 -7.48054688 0.39726562 -6.21484375 -0.07421875 C-3 -1 -3 -1 0 0 Z " fill="#278CA3" transform="translate(390,230)"/>
<path d="M0 0 C2.31 0 4.62 0 7 0 C0.78946773 5.21684711 -6.20913451 6.66755822 -14 8 C-13.67 7.01 -13.34 6.02 -13 5 C-10.29120665 3.64560332 -7.99066732 3.93498549 -5 4 C-5 3.34 -5 2.68 -5 2 C-3.35 2 -1.7 2 0 2 C0 1.34 0 0.68 0 0 Z " fill="#297E9C" transform="translate(386,219)"/>
<path d="M0 0 C4.06039605 1.32584361 5.04097067 3.34569697 7.0625 7 C-1.13006018 6.64989059 -1.13006018 6.64989059 -4.5 3.9375 C-4.974375 3.298125 -5.44875 2.65875 -5.9375 2 C-2.9375 0 -2.9375 0 0 0 Z " fill="#5CCEEA" transform="translate(312.9375,236)"/>
<path d="M0 0 C5.87475032 1.53254356 11.39473306 3.67669016 17 6 C13.06329512 7.31223496 10.87511856 6.24296256 7 5 C6.67 5.66 6.34 6.32 6 7 C6.99 7 7.98 7 9 7 C8.67 7.66 8.34 8.32 8 9 C6.35063087 8.21572648 4.70558873 7.42234741 3.0625 6.625 C2.14597656 6.18414062 1.22945313 5.74328125 0.28515625 5.2890625 C-2 4 -2 4 -3 2 C-0.69 2.33 1.62 2.66 4 3 C2.68 2.34 1.36 1.68 0 1 C0 0.67 0 0.34 0 0 Z " fill="#55767F" transform="translate(270,220)"/>
<path d="M0 0 C6.33393082 -0.34548714 11.10261508 0.70657253 17 3 C13.71023192 4.09658936 12.28696233 3.79953138 9 3 C9.33 3.66 9.66 4.32 10 5 C8.68 5 7.36 5 6 5 C6 5.66 6 6.32 6 7 C4.68 7.33 3.36 7.66 2 8 C2.33 6.35 2.66 4.7 3 3 C3.66 3 4.32 3 5 3 C5 2.34 5 1.68 5 1 C3.35 1 1.7 1 0 1 C0 0.67 0 0.34 0 0 Z " fill="#6BAEC0" transform="translate(233,175)"/>
<path d="M0 0 C1.11375 0.185625 2.2275 0.37125 3.375 0.5625 C6.82568861 1.31680657 6.82568861 1.31680657 9 0 C9 1.32 9 2.64 9 4 C9.66 4 10.32 4 11 4 C11 4.66 11 5.32 11 6 C4.99666876 6.6319296 0.36595205 4.37544123 -5 2 C-4.34 1.67 -3.68 1.34 -3 1 C-2.01 1.33 -1.02 1.66 0 2 C0 1.34 0 0.68 0 0 Z " fill="#59ACBF" transform="translate(303,219)"/>
<path d="M0 0 C4.05606165 0.46800711 7.46588679 0.87953208 11 3 C11 3.66 11 4.32 11 5 C11.99 5 12.98 5 14 5 C14.33 5.99 14.66 6.98 15 8 C11.43379536 7.38865063 8.3160119 6.44544108 5 5 C3.88625 4.5359375 3.88625 4.5359375 2.75 4.0625 C1 3 1 3 0 0 Z " fill="#72A1AA" transform="translate(244,209)"/>
<path d="M0 0 C3.86455954 0.84903202 7.53808048 2.21579749 11.25 3.5625 C11.8996875 3.79646484 12.549375 4.03042969 13.21875 4.27148438 C14.81312378 4.84592787 16.40664767 5.4227293 18 6 C14.30581799 7.231394 11.7943739 6.64432764 8 6 C7.67 6.99 7.34 7.98 7 9 C6.896875 8.360625 6.79375 7.72125 6.6875 7.0625 C6.3471875 6.0415625 6.3471875 6.0415625 6 5 C5.01 4.67 4.02 4.34 3 4 C3 3.34 3 2.68 3 2 C2.01 2 1.02 2 0 2 C0 1.34 0 0.68 0 0 Z " fill="#4092A6" transform="translate(264,183)"/>
<path d="M0 0 C0.66 0 1.32 0 2 0 C2.33 0.99 2.66 1.98 3 3 C-0.625 6 -0.625 6 -4 6 C-3.67 7.98 -3.34 9.96 -3 12 C-5.475 11.01 -5.475 11.01 -8 10 C-7.67 9.01 -7.34 8.02 -7 7 C-7.66 6.67 -8.32 6.34 -9 6 C-6.23776722 3.23776722 -3.79293383 3.42143709 0 3 C0 2.01 0 1.02 0 0 Z " fill="#4092AA" transform="translate(349,137)"/>
<path d="M0 0 C0.99 0.33 1.98 0.66 3 1 C1.02 4.63 -0.96 8.26 -3 12 C-1.35 11.67 0.3 11.34 2 11 C1.67 11.66 1.34 12.32 1 13 C-2.0625 13.625 -2.0625 13.625 -5 14 C-5 10 -5 10 -4 9 C-3.95919217 7.00041636 -3.95745644 4.99954746 -4 3 C-2.68 3 -1.36 3 0 3 C0 2.01 0 1.02 0 0 Z " fill="#28859E" transform="translate(394,198)"/>
<path d="M0 0 C1.65 0.33 3.3 0.66 5 1 C5 1.66 5 2.32 5 3 C5.99 3 6.98 3 8 3 C8 3.99 8 4.98 8 6 C6.02 6.33 4.04 6.66 2 7 C1.67 6.34 1.34 5.68 1 5 C0.01 4.67 -0.98 4.34 -2 4 C-1.34 2.68 -0.68 1.36 0 0 Z " fill="#6BD6F0" transform="translate(326,239)"/>
<path d="M0 0 C0 0.66 0 1.32 0 2 C1.32 2 2.64 2 4 2 C4.33 3.32 4.66 4.64 5 6 C1.86650268 7.04449911 1.01031744 6.93423645 -2 6 C-2 5.34 -2 4.68 -2 4 C-3.32 3.67 -4.64 3.34 -6 3 C-3.375 0 -3.375 0 0 0 Z " fill="#60CEE9" transform="translate(302,232)"/>
<path d="M0 0 C-0.33 1.65 -0.66 3.3 -1 5 C-2.32 5.33 -3.64 5.66 -5 6 C-6 4 -6 4 -6 3 C-8.64 3 -11.28 3 -14 3 C-9.7368213 0.15788087 -5.03577274 -2.0143091 0 0 Z " fill="#2A93AE" transform="translate(410,206)"/>
<path d="M0 0 C6.40629424 -0.20852314 11.92972642 -0.1583195 18 2 C17.38125 2.144375 16.7625 2.28875 16.125 2.4375 C13.96741678 2.93152225 13.96741678 2.93152225 12 4 C10.00039988 4.039992 7.99952758 4.04346799 6 4 C6 3.67 6 3.34 6 3 C4.02 2.34 2.04 1.68 0 1 C0 0.67 0 0.34 0 0 Z " fill="#6A95A1" transform="translate(215,172)"/>
<path d="M0 0 C0.66 0.33 1.32 0.66 2 1 C-3.98457055 4.9897137 -9.54244991 5.25583715 -16.4375 4.625 C-17.16904297 4.56828125 -17.90058594 4.5115625 -18.65429688 4.453125 C-20.43711286 4.3132963 -22.21872382 4.15824062 -24 4 C-24 3.67 -24 3.34 -24 3 C-23.34402832 2.94465088 -22.68805664 2.88930176 -22.01220703 2.83227539 C-19.04942727 2.57990601 -16.08722626 2.32128185 -13.125 2.0625 C-12.09246094 1.97548828 -11.05992187 1.88847656 -9.99609375 1.79882812 C-8.51689453 1.66831055 -8.51689453 1.66831055 -7.0078125 1.53515625 C-6.09660645 1.456604 -5.18540039 1.37805176 -4.24658203 1.29711914 C-1.968356 1.12004581 -1.968356 1.12004581 0 0 Z " fill="#377B8D" transform="translate(273,268)"/>
<path d="M0 0 C0.6875 1.9375 0.6875 1.9375 1 4 C0.67 4.66 0.34 5.32 0 6 C-2.31 5.67 -4.62 5.34 -7 5 C-7.33 3.68 -7.66 2.36 -8 1 C-2.25 -1.125 -2.25 -1.125 0 0 Z " fill="#73D9F3" transform="translate(254,193)"/>
<path d="M0 0 C0.66 0 1.32 0 2 0 C1.42176904 4.06225548 0.10882263 6.84762346 -2.0625 10.3125 C-2.61035156 11.19550781 -3.15820312 12.07851562 -3.72265625 12.98828125 C-4.14417969 13.65214844 -4.56570313 14.31601563 -5 15 C-6.231394 11.30581799 -5.64432764 8.7943739 -5 5 C-3.68 4.67 -2.36 4.34 -1 4 C-0.67 2.68 -0.34 1.36 0 0 Z " fill="#2992B1" transform="translate(419,156)"/>
<path d="M0 0 C0 0.99 0 1.98 0 3 C-9.41002278 6.44419134 -9.41002278 6.44419134 -14 6 C-14 5.34 -14 4.68 -14 4 C-9.22613086 1.44653511 -5.42119013 0 0 0 Z " fill="#5895A7" transform="translate(154,184)"/>
<path d="M0 0 C5.06998019 0.65419099 9.41990777 2.8546409 14 5 C14 5.33 14 5.66 14 6 C12.3954444 5.85851011 10.79136233 5.71164314 9.1875 5.5625 C8.29417969 5.48128906 7.40085937 5.40007812 6.48046875 5.31640625 C4 5 4 5 1 4 C0.3125 1.9375 0.3125 1.9375 0 0 Z " fill="#4C9FB4" transform="translate(282,190)"/>
<path d="M0 0 C0 4.24645065 -1.81750806 6.38524772 -4 10 C-4.66 10 -5.32 10 -6 10 C-6.33 11.32 -6.66 12.64 -7 14 C-7.8125 10.8125 -7.8125 10.8125 -8 7 C-5.57776658 3.97220823 -3.21803987 2.14535991 0 0 Z " fill="#23829C" transform="translate(404,184)"/>
<path d="M0 0 C0.66 0 1.32 0 2 0 C4.04169485 2.90548882 5 4.40142046 5 8 C5.99 8 6.98 8 8 8 C8.66 9.32 9.32 10.64 10 12 C10.66 11.34 11.32 10.68 12 10 C11.67 12.31 11.34 14.62 11 17 C8.20127563 14.47211993 6.54226981 12.79588866 6 9 C5.34 9 4.68 9 4 9 C0 2.25 0 2.25 0 0 Z " fill="#30788F" transform="translate(338,181)"/>
<path d="M0 0 C0.66 0 1.32 0 2 0 C2.16435547 0.95712891 2.16435547 0.95712891 2.33203125 1.93359375 C2.49058594 2.75988281 2.64914062 3.58617187 2.8125 4.4375 C2.96332031 5.26121094 3.11414063 6.08492187 3.26953125 6.93359375 C3.51058594 7.61550781 3.75164062 8.29742187 4 9 C4.99 9.33 5.98 9.66 7 10 C7.33 9.34 7.66 8.68 8 8 C7.75 9.875 7.75 9.875 7 12 C4.9375 13.25 4.9375 13.25 3 14 C0.81005752 10.71508627 0.64722661 9.16904361 0.375 5.3125 C0.30023438 4.31863281 0.22546875 3.32476562 0.1484375 2.30078125 C0.09945313 1.54152344 0.05046875 0.78226563 0 0 Z " fill="#1E6C7E" transform="translate(288,165)"/>
<path d="M0 0 C2.0625 0.4375 2.0625 0.4375 4 1 C4 1.66 4 2.32 4 3 C4.66 3.33 5.32 3.66 6 4 C6 4.99 6 5.98 6 7 C3.69 7 1.38 7 -1 7 C-1.04254356 5.00045254 -1.04080783 2.99958364 -1 1 C-0.67 0.67 -0.34 0.34 0 0 Z " fill="#D9F8FD" transform="translate(209,257)"/>
<path d="M0 0 C5.61 0.66 11.22 1.32 17 2 C17 2.33 17 2.66 17 3 C12.71 3.66 8.42 4.32 4 5 C3.34 3.68 2.68 2.36 2 1 C1.34 0.67 0.68 0.34 0 0 Z " fill="#3B8295" transform="translate(337,209)"/>
<path d="M0 0 C2.0625 0.4375 2.0625 0.4375 4 1 C4 3.31 4 5.62 4 8 C2.35 8.33 0.7 8.66 -1 9 C-1.09765625 2.84765625 -1.09765625 2.84765625 -1 1 C-0.67 0.67 -0.34 0.34 0 0 Z " fill="#A2E8F9" transform="translate(212,140)"/>
<path d="M0 0 C1.32 0.33 2.64 0.66 4 1 C3.49396008 3.16874252 3.00016187 4.99967627 2 7 C0.35 7 -1.3 7 -3 7 C-2.38722388 4.03824877 -1.74627478 2.61941217 0 0 Z " fill="#BFE2EA" transform="translate(204,155)"/>
<path d="M0 0 C0.66 0 1.32 0 2 0 C2.66 1.98 3.32 3.96 4 6 C2.5629191 6.05422947 1.12524538 6.09289723 -0.3125 6.125 C-1.11300781 6.14820313 -1.91351563 6.17140625 -2.73828125 6.1953125 C-5 6 -5 6 -8 4 C-7.236875 3.855625 -6.47375 3.71125 -5.6875 3.5625 C-2.91827092 3.0367406 -2.91827092 3.0367406 0 2 C0 1.34 0 0.68 0 0 Z " fill="#A0D1DD" transform="translate(221,273)"/>
<path d="M0 0 C3 0.1875 3 0.1875 5 1.1875 C4.67 2.1775 4.34 3.1675 4 4.1875 C2.68 3.8575 1.36 3.5275 0 3.1875 C0 3.8475 0 4.5075 0 5.1875 C-1.65 4.8575 -3.3 4.5275 -5 4.1875 C-5 0.56453876 -3.31963812 0.20747738 0 0 Z " fill="#67D4EF" transform="translate(303,215.8125)"/>
<path d="M0 0 C2.31 0 4.62 0 7 0 C6.319375 0.763125 5.63875 1.52625 4.9375 2.3125 C4.298125 3.199375 3.65875 4.08625 3 5 C3.33 5.99 3.66 6.98 4 8 C2.68 8.33 1.36 8.66 0 9 C0 6 0 3 0 0 Z " fill="#63D1F0" transform="translate(222,138)"/>
<path d="M0 0 C8.57142857 -0.28571429 8.57142857 -0.28571429 12 2 C7.375 5 7.375 5 4 5 C4 3.68 4 2.36 4 1 C2.68 0.67 1.36 0.34 0 0 Z " fill="#38B8D8" transform="translate(260,136)"/>
<path d="M0 0 C0.28875 0.61875 0.5775 1.2375 0.875 1.875 C1.93720042 4.13325765 1.93720042 4.13325765 4 6 C6.57061311 6.64767793 6.57061311 6.64767793 9 7 C9 7.66 9 8.32 9 9 C8.34 9.66 7.68 10.32 7 11 C4.29324094 10.82537038 3.20641369 10.19904177 1.25 8.3125 C-0.32663401 5.39572708 -0.22275681 3.26709987 0 0 Z " fill="#2A8AA6" transform="translate(387,268)"/>
<path d="M0 0 C6.625 -0.25 6.625 -0.25 10 2 C10.27060777 6.1944205 10.34152439 9.97542684 9 14 C8.01 13.67 7.02 13.34 6 13 C6.33 11.68 6.66 10.36 7 9 C7.66 9 8.32 9 9 9 C8.67 6.69 8.34 4.38 8 2 C5.36 1.67 2.72 1.34 0 1 C0 0.67 0 0.34 0 0 Z " fill="#1E6A7F" transform="translate(287,139)"/>
<path d="M0 0 C0.33 0 0.66 0 1 0 C0.91253716 1.43861294 0.80434652 2.87597508 0.6875 4.3125 C0.62949219 5.11300781 0.57148438 5.91351563 0.51171875 6.73828125 C-0.08206694 9.36272334 -0.95780294 10.30820672 -3 12 C-3.99 11.67 -4.98 11.34 -6 11 C-5.67 10.34 -5.34 9.68 -5 9 C-4.34 9 -3.68 9 -3 9 C-3 7.35 -3 5.7 -3 4 C-2.34 3.67 -1.68 3.34 -1 3 C-0.67 2.01 -0.34 1.02 0 0 Z " fill="#4C95A9" transform="translate(293,267)"/>
<path d="M0 0 C0.66 0 1.32 0 2 0 C2 1.98 2 3.96 2 6 C1.34 6 0.68 6 0 6 C-0.33 7.32 -0.66 8.64 -1 10 C-1.99 10 -2.98 10 -4 10 C-3.67 8.35 -3.34 6.7 -3 5 C-2.34 5 -1.68 5 -1 5 C-0.67 3.35 -0.34 1.7 0 0 Z " fill="#7EC9DC" transform="translate(217,143)"/>
<path d="M0 0 C1.32 0.33 2.64 0.66 4 1 C4.33 2.32 4.66 3.64 5 5 C5.66 5 6.32 5 7 5 C7 5.66 7 6.32 7 7 C6.01 7.33 5.02 7.66 4 8 C2 6.25 2 6.25 0 4 C0 2.68 0 1.36 0 0 Z M1 2 C2 4 2 4 2 4 Z " fill="#6CD5F1" transform="translate(304,200)"/>
<path d="M0 0 C0.66 0.66 1.32 1.32 2 2 C1.625 4.125 1.625 4.125 1 6 C1.66 6.33 2.32 6.66 3 7 C-4.42857143 7.28571429 -4.42857143 7.28571429 -8 5 C-6 4.33333333 -4 3.66666667 -2 3 C-1.34 2.01 -0.68 1.02 0 0 Z " fill="#55AABE" transform="translate(255,194)"/>
<path d="M0 0 C3.79918838 0.51340384 5.43134786 1.2079868 8 4 C10.09989652 5.17574711 10.09989652 5.17574711 12 6 C10 7 10 7 7.3984375 6.22265625 C5.90183594 5.64837891 5.90183594 5.64837891 4.375 5.0625 C3.37210938 4.68222656 2.36921875 4.30195313 1.3359375 3.91015625 C0.56507813 3.60980469 -0.20578125 3.30945313 -1 3 C-0.67 2.01 -0.34 1.02 0 0 Z " fill="#6CA4B0" transform="translate(228,188)"/>
<path d="M0 0 C6.27 0.33 12.54 0.66 19 1 C19 1.33 19 1.66 19 2 C17.86820312 2.06058594 16.73640625 2.12117187 15.5703125 2.18359375 C14.08852855 2.26799917 12.6067584 2.35264717 11.125 2.4375 C10.00544922 2.49647461 10.00544922 2.49647461 8.86328125 2.55664062 C4.80013136 2.71573624 4.80013136 2.71573624 1 4 C0.67 2.68 0.34 1.36 0 0 Z " fill="#28596A" transform="translate(330,238)"/>
<path d="M0 0 C0 0.99 0 1.98 0 3 C1.32 3.33 2.64 3.66 4 4 C1.525 5.485 1.525 5.485 -1 7 C-1.33 5.68 -1.66 4.36 -2 3 C-3.98 3 -5.96 3 -8 3 C-8 2.67 -8 2.34 -8 2 C-2.25 0 -2.25 0 0 0 Z " fill="#1E7489" transform="translate(407,222)"/>
<path d="M0 0 C3.9492568 0.55105909 7.34920174 1.38935371 11 3 C10.67 3.99 10.34 4.98 10 6 C8.5164999 5.57742724 7.03823576 5.13643678 5.5625 4.6875 C4.73878906 4.44386719 3.91507813 4.20023438 3.06640625 3.94921875 C2.04353516 3.47935547 2.04353516 3.47935547 1 3 C0.67 2.01 0.34 1.02 0 0 Z " fill="#3F737D" transform="translate(235,205)"/>
<path d="M0 0 C0.66 0 1.32 0 2 0 C2.63394697 4.04141194 3.12404452 7.9065307 3 12 C2.01 11.67 1.02 11.34 0 11 C0.66 11 1.32 11 2 11 C0.68 8.36 -0.64 5.72 -2 3 C-1.34 3 -0.68 3 0 3 C0 2.01 0 1.02 0 0 Z " fill="#3798AF" transform="translate(354,201)"/>
<path d="M0 0 C1.53271273 4.58798777 0.02911182 6.77944742 -2 11 C-2.66 11 -3.32 11 -4 11 C-4.33 12.98 -4.66 14.96 -5 17 C-5.66 16.67 -6.32 16.34 -7 16 C-5.35433477 10.31497465 -2.70967216 5.23318364 0 0 Z " fill="#24798E" transform="translate(407,151)"/>
<path d="M0 0 C-0.6875 1.9375 -0.6875 1.9375 -2 4 C-4.5 4.625 -4.5 4.625 -7 5 C-7.66 5.66 -8.32 6.32 -9 7 C-9.33 5.68 -9.66 4.36 -10 3 C-3.375 0 -3.375 0 0 0 Z " fill="#5BCAE5" transform="translate(282,267)"/>
<path d="M0 0 C0.33 0.99 0.66 1.98 1 3 C1.65129797 4.34090759 2.31513275 5.67592331 3 7 C1.1875 7.625 1.1875 7.625 -1 8 C-1.99 7.34 -2.98 6.68 -4 6 C-2.25 1.125 -2.25 1.125 0 0 Z " fill="#4FC7E4" transform="translate(359,239)"/>
<path d="M0 0 C2.72426311 2.35277269 3.8141763 4.62496331 5 8 C3 8 1 8 -1 8 C-0.67 5.36 -0.34 2.72 0 0 Z " fill="#2F94AD" transform="translate(361,177)"/>
<path d="M0 0 C2.31 0.66 4.62 1.32 7 2 C6.67 3.32 6.34 4.64 6 6 C4.68 5.67 3.36 5.34 2 5 C2 4.34 2 3.68 2 3 C1.01 3 0.02 3 -1 3 C-0.67 2.01 -0.34 1.02 0 0 Z " fill="#9CD9E4" transform="translate(277,224)"/>
<path d="M0 0 C2.475 0.495 2.475 0.495 5 1 C5.33 3.97 5.66 6.94 6 10 C2.62358918 6.62358918 1.72549695 4.35482564 0 0 Z " fill="#639CAB" transform="translate(171,240)"/>
<path d="M0 0 C3.9492568 0.55105909 7.34920174 1.38935371 11 3 C10.67 3.66 10.34 4.32 10 5 C8.33157466 4.67558396 6.66519519 4.34060811 5 4 C4.2575 3.87625 3.515 3.7525 2.75 3.625 C2.1725 3.41875 1.595 3.2125 1 3 C0.67 2.01 0.34 1.02 0 0 Z " fill="#C1EBF1" transform="translate(264,219)"/>
<path d="M0 0 C1.09898702 3.29696105 0.87124444 4.40494903 0.0625 7.6875 C-0.13214844 8.49574219 -0.32679688 9.30398437 -0.52734375 10.13671875 C-0.68332031 10.75160156 -0.83929688 11.36648437 -1 12 C-2.32 11.67 -3.64 11.34 -5 11 C-4.34 11 -3.68 11 -3 11 C-3.061875 9.9275 -3.12375 8.855 -3.1875 7.75 C-2.99456691 3.89133813 -2.60334924 2.71182212 0 0 Z " fill="#2992AC" transform="translate(383,196)"/>
<path d="M0 0 C1.65 0 3.3 0 5 0 C5 1.32 5 2.64 5 4 C3.35 4.66 1.7 5.32 0 6 C0 4.02 0 2.04 0 0 Z " fill="#2EBBDC" transform="translate(368,201)"/>
<path d="M0 0 C2.6875 -0.3125 2.6875 -0.3125 6 0 C8.875 2.5 8.875 2.5 11 5 C7.80389448 5 6.58282374 4.45328458 3.8125 3 C3.09707031 2.62875 2.38164062 2.2575 1.64453125 1.875 C1.10183594 1.58625 0.55914062 1.2975 0 1 C0 0.67 0 0.34 0 0 Z " fill="#287C97" transform="translate(267,147)"/>
<path d="M0 0 C0 0.33 0 0.66 0 1 C-7.42857143 3.14285714 -7.42857143 3.14285714 -11 4 C-10.6875 2.0625 -10.6875 2.0625 -10 0 C-6.30581799 -1.231394 -3.7943739 -0.64432764 0 0 Z " fill="#5AA6B2" transform="translate(228,147)"/>
<path d="M0 0 C0.66 0 1.32 0 2 0 C1.67 2.31 1.34 4.62 1 7 C1.99 7 2.98 7 4 7 C3.67 8.32 3.34 9.64 3 11 C1.68 10.34 0.36 9.68 -1 9 C-0.67 6.03 -0.34 3.06 0 0 Z " fill="#C0EFFB" transform="translate(208,143)"/>
<path d="M0 0 C-0.33 0.66 -0.66 1.32 -1 2 C-7.15234375 1.4140625 -7.15234375 1.4140625 -9 1 C-9.33 0.34 -9.66 -0.32 -10 -1 C-6.06329512 -2.31223496 -3.87511856 -1.24296256 0 0 Z " fill="#2EB0D1" transform="translate(403,278)"/>
<path d="M0 0 C2.475 0.99 2.475 0.99 5 2 C5 2.66 5 3.32 5 4 C0.83861737 4.08159574 -2.9472484 3.98248524 -7 3 C-7 2.67 -7 2.34 -7 2 C-4.69 2 -2.38 2 0 2 C0 1.34 0 0.68 0 0 Z " fill="#468E9E" transform="translate(326,225)"/>
<path d="M0 0 C1.5778125 0.4021875 1.5778125 0.4021875 3.1875 0.8125 C1.8675 1.1425 0.5475 1.4725 -0.8125 1.8125 C-0.8125 2.4725 -0.8125 3.1325 -0.8125 3.8125 C-2.4625 3.8125 -4.1125 3.8125 -5.8125 3.8125 C-5.8125 4.4725 -5.8125 5.1325 -5.8125 5.8125 C-6.8025 5.4825 -7.7925 5.1525 -8.8125 4.8125 C-4.75096154 -0.23365385 -4.75096154 -0.23365385 0 0 Z " fill="#2CB5D7" transform="translate(386.8125,217.1875)"/>
<path d="M0 0 C2.31 0 4.62 0 7 0 C5.68 0.33 4.36 0.66 3 1 C4.32 2.98 5.64 4.96 7 7 C2.25 5.125 2.25 5.125 0 4 C0 2.68 0 1.36 0 0 Z " fill="#296879" transform="translate(401,137)"/>
<path d="M0 0 C0.33 0.99 0.66 1.98 1 3 C-2.9813783 4.3271261 -6.85045227 4.06915913 -11 4 C-8.6870518 1.6870518 -7.52095125 1.50419025 -4.375 0.875 C-3.55773437 0.70742187 -2.74046875 0.53984375 -1.8984375 0.3671875 C-1.27195313 0.24601563 -0.64546875 0.12484375 0 0 Z " fill="#469BAA" transform="translate(234,134)"/>
<path d="M0 0 C1.27875 -0.061875 2.5575 -0.12375 3.875 -0.1875 C4.95394531 -0.23970703 4.95394531 -0.23970703 6.0546875 -0.29296875 C6.69664062 -0.19628906 7.33859375 -0.09960938 8 0 C8.66 0.99 9.32 1.98 10 3 C9.67 3.66 9.34 4.32 9 5 C7.68 4.67 6.36 4.34 5 4 C5 3.34 5 2.68 5 2 C3.35 1.67 1.7 1.34 0 1 C0 0.67 0 0.34 0 0 Z " fill="#278799" transform="translate(397,276)"/>
<path d="M0 0 C0.99 0.33 1.98 0.66 3 1 C3 1.66 3 2.32 3 3 C2.34 3 1.68 3 1 3 C1.33 4.32 1.66 5.64 2 7 C0.02 7.99 0.02 7.99 -2 9 C-1.125 2.25 -1.125 2.25 0 0 Z " fill="#45C5E3" transform="translate(363,263)"/>
<path d="M0 0 C0.66 0.33 1.32 0.66 2 1 C2 2.98 2 4.96 2 7 C0.35 6.67 -1.3 6.34 -3 6 C-2.42655063 3.13275314 -2.1385485 2.1385485 0 0 Z " fill="#61CEE8" transform="translate(286,208)"/>
<path d="M0 0 C5.75 -0.125 5.75 -0.125 8 1 C8 1.66 8 2.32 8 3 C5.36 3 2.72 3 0 3 C0 2.01 0 1.02 0 0 Z " fill="#68CEE6" transform="translate(346,277)"/>
<path d="M0 0 C-1.6875 2.0625 -1.6875 2.0625 -4 4 C-6.75 3.75 -6.75 3.75 -9 3 C-7 0 -7 0 -5.0625 -0.75 C-3 -1 -3 -1 0 0 Z " fill="#2AB2D4" transform="translate(407,209)"/>
<path d="M0 0 C0.99 0.66 1.98 1.32 3 2 C0.36 2.33 -2.28 2.66 -5 3 C-5.33 2.34 -5.66 1.68 -6 1 C-6.99 1.33 -7.98 1.66 -9 2 C-9 1.34 -9 0.68 -9 0 C-5.88109857 -1.55945072 -3.34501482 -0.64552918 0 0 Z " fill="#448FA0" transform="translate(303,197)"/>
<path d="M0 0 C1.98 0 3.96 0 6 0 C5.505 0.433125 5.01 0.86625 4.5 1.3125 C2.66781808 2.99740483 2.66781808 2.99740483 3 6 C0.69 5.34 -1.62 4.68 -4 4 C-3.34 3.67 -2.68 3.34 -2 3 C-1.01 3.33 -0.02 3.66 1 4 C0.67 2.68 0.34 1.36 0 0 Z " fill="#5DACC1" transform="translate(244,192)"/>
<path d="M0 0 C3.09592835 3.5087188 4.74194623 6.49197399 6 11 C3 10 3 10 1.3125 7.1875 C0 4 0 4 0 0 Z " fill="#2D798D" transform="translate(366,185)"/>
<path d="M0 0 C0.66 0 1.32 0 2 0 C1.6875 1.9375 1.6875 1.9375 1 4 C0.01 4.33 -0.98 4.66 -2 5 C-2.33 5.66 -2.66 6.32 -3 7 C-3.99 6.67 -4.98 6.34 -6 6 C-4 4 -2 2 0 0 Z " fill="#578CA1" transform="translate(190,151)"/>
<path d="M0 0 C2.9375 0.75 2.9375 0.75 6 2 C6.875 4.125 6.875 4.125 7 6 C5.33333333 6 3.66666667 6 2 6 C2 5.01 2 4.02 2 3 C1.34 2.67 0.68 2.34 0 2 C0 1.34 0 0.68 0 0 Z " fill="#80BFC9" transform="translate(228,265)"/>
<path d="M0 0 C2.62386487 3.06117568 3 3.73173127 3 8 C2.01 8.33 1.02 8.66 0 9 C0 8.34 0 7.68 0 7 C-0.66 6.67 -1.32 6.34 -2 6 C-1.34 4.02 -0.68 2.04 0 0 Z " fill="#B2ECF7" transform="translate(194,227)"/>
<path d="M0 0 C0.33 0.66 0.66 1.32 1 2 C0.01 2.495 0.01 2.495 -1 3 C-1 3.99 -1 4.98 -1 6 C-1.99 6.33 -2.98 6.66 -4 7 C-4.66 5.68 -5.32 4.36 -6 3 C-4.02 2.01 -2.04 1.02 0 0 Z " fill="#73A9B4" transform="translate(198,146)"/>
<path d="M0 0 C0 0.33 0 0.66 0 1 C-4.0527516 1.98248524 -7.83861737 2.08159574 -12 2 C-12 1.34 -12 0.68 -12 0 C-7.74433453 -1.16063604 -4.3164922 -0.76173392 0 0 Z " fill="#4391AD" transform="translate(277,281)"/>
<path d="M0 0 C1.65 0.33 3.3 0.66 5 1 C0.25 5 0.25 5 -2 5 C-2 5.66 -2 6.32 -2 7 C-2.66 6.67 -3.32 6.34 -4 6 C-3.67 5.01 -3.34 4.02 -3 3 C-2.01 3 -1.02 3 0 3 C0 2.01 0 1.02 0 0 Z " fill="#27849B" transform="translate(400,228)"/>
<path d="M0 0 C2.97 0.495 2.97 0.495 6 1 C6.33 2.32 6.66 3.64 7 5 C6.34 4.67 5.68 4.34 5 4 C5 3.34 5 2.68 5 2 C4.01 2 3.02 2 2 2 C1.67 2.99 1.34 3.98 1 5 C1 4.34 1 3.68 1 3 C0.34 3 -0.32 3 -1 3 C-0.67 2.01 -0.34 1.02 0 0 Z " fill="#62CDE8" transform="translate(333,209)"/>
<path d="M0 0 C0.33 0.66 0.66 1.32 1 2 C-2.08888522 4.05925681 -2.70935927 4.2390374 -6.1875 4.125 C-8.0746875 4.063125 -8.0746875 4.063125 -10 4 C-6.71536341 1.81024227 -3.79303725 1.00193437 0 0 Z " fill="#236F84" transform="translate(406,205)"/>
<path d="M0 0 C2.97 0 5.94 0 9 0 C9 0.66 9 1.32 9 2 C7.68 1.67 6.36 1.34 5 1 C4.67 1.99 4.34 2.98 4 4 C3.34 3.34 2.68 2.68 2 2 C1.01 2 0.02 2 -1 2 C-0.67 1.34 -0.34 0.68 0 0 Z " fill="#D1F4FE" transform="translate(202,174)"/>
<path d="M0 0 C1 2 1 2 0.3125 4.9375 C-1.06192878 8.14450048 -2.06205603 9.23723362 -5 11 C-4.32902328 6.80639551 -2.1441606 3.59665648 0 0 Z " fill="#1B6372" transform="translate(399,167)"/>
<path d="M0 0 C3.3 0 6.6 0 10 0 C10 0.99 10 1.98 10 3 C6.7 2.34 3.4 1.68 0 1 C0 0.67 0 0.34 0 0 Z " fill="#5892A1" transform="translate(238,270)"/>
<path d="M0 0 C2.475 0.99 2.475 0.99 5 2 C5 2.99 5 3.98 5 5 C2.69 4.34 0.38 3.68 -2 3 C-1.34 2.01 -0.68 1.02 0 0 Z " fill="#C8E7ED" transform="translate(210,254)"/>
<path d="M0 0 C2 1.75 2 1.75 4 4 C4 5.32 4 6.64 4 8 C3.34 8 2.68 8 2 8 C1.67 8.66 1.34 9.32 1 10 C0.67 6.7 0.34 3.4 0 0 Z " fill="#559BAE" transform="translate(166,221)"/>
<path d="M0 0 C1.32 0 2.64 0 4 0 C6 3 6 3 5.625 5.1875 C5.41875 5.785625 5.2125 6.38375 5 7 C5 6.34 5 5.68 5 5 C4.34 5 3.68 5 3 5 C1.375 3.625 1.375 3.625 0 2 C0 1.34 0 0.68 0 0 Z " fill="#4E97AC" transform="translate(314,146)"/>
<path d="M0 0 C2.64 0.33 5.28 0.66 8 1 C7.67 1.99 7.34 2.98 7 4 C3.73045798 3.43628586 2.17424117 2.50037734 0 0 Z " fill="#47BDD9" transform="translate(349,212)"/>
<path d="M0 0 C2.31 0.33 4.62 0.66 7 1 C5.68 2.32 4.36 3.64 3 5 C2.01 4.34 1.02 3.68 0 3 C0 2.01 0 1.02 0 0 Z " fill="#22829A" transform="translate(408,204)"/>
<path d="M0 0 C2.72869407 0.03287583 5.2966618 0.56397771 8 1 C7.01 1.495 7.01 1.495 6 2 C5.67 2.66 5.34 3.32 5 4 C2.69 3.34 0.38 2.68 -2 2 C-1.34 1.34 -0.68 0.68 0 0 Z " fill="#64D3F0" transform="translate(288,195)"/>
<path d="M0 0 C2 2 2 2 2 5 C-0.4375 4.625 -0.4375 4.625 -3 4 C-3.33 3.34 -3.66 2.68 -4 2 C-2.68 1.34 -1.36 0.68 0 0 Z " fill="#85D9F0" transform="translate(243,191)"/>
<path d="M0 0 C-2.35968744 2.09749995 -3.54616994 2.96905704 -6.75 3.1875 C-7.86375 3.0946875 -7.86375 3.0946875 -9 3 C-9 2.34 -9 1.68 -9 1 C-5.64919071 -1.10976881 -3.77897651 -1.0497157 0 0 Z " fill="#295A5D" transform="translate(149,187)"/>
<path d="M0 0 C1.32 0.33 2.64 0.66 4 1 C4.33 2.32 4.66 3.64 5 5 C4.01 5 3.02 5 2 5 C2 4.34 2 3.68 2 3 C0.68 3.33 -0.64 3.66 -2 4 C-2 3.34 -2 2.68 -2 2 C-1.34 2 -0.68 2 0 2 C0 1.34 0 0.68 0 0 Z " fill="#76D4EC" transform="translate(184,158)"/>
<path d="M0 0 C0 3 0 3 -1 6 C-2.32 6 -3.64 6 -5 6 C-4.67 5.01 -4.34 4.02 -4 3 C-3.34 3 -2.68 3 -2 3 C-2 2.34 -2 1.68 -2 1 C-1.34 0.67 -0.68 0.34 0 0 Z " fill="#B3EBF8" transform="translate(201,145)"/>
<path d="M0 0 C-3.625 3 -3.625 3 -7 3 C-6.67 2.01 -6.34 1.02 -6 0 C-3.50907189 -1.24546405 -2.58919267 -0.7767578 0 0 Z " fill="#2F92AC" transform="translate(379,224)"/>
<path d="M0 0 C0.66 0.33 1.32 0.66 2 1 C1.67 1.99 1.34 2.98 1 4 C-0.9375 4.8125 -0.9375 4.8125 -3 5 C-3.66 4.34 -4.32 3.68 -5 3 C-2.625 1.4375 -2.625 1.4375 0 0 Z " fill="#255A64" transform="translate(422,214)"/>
<path d="M0 0 C2.31 0 4.62 0 7 0 C5 3 5 3 2.375 3.6875 C1.199375 3.8421875 1.199375 3.8421875 0 4 C0 2.68 0 1.36 0 0 Z " fill="#257B9D" transform="translate(398,212)"/>
<path d="M0 0 C5.75 0.75 5.75 0.75 8 3 C5.36 3 2.72 3 0 3 C0 2.01 0 1.02 0 0 Z " fill="#418894" transform="translate(251,179)"/>
<path d="M0 0 C1.98 0.495 1.98 0.495 4 1 C2.68 3.31 1.36 5.62 0 8 C-1.09658936 4.71023192 -0.79953138 3.28696233 0 0 Z " fill="#20758F" transform="translate(414,163)"/>
<path d="M0 0 C0.33 0.66 0.66 1.32 1 2 C0.34 2 -0.32 2 -1 2 C-2.01111093 5.04913228 -2.01111093 5.04913228 -1 8 C-2.32 7.67 -3.64 7.34 -5 7 C-3.70700306 4.11562221 -2.34058637 2.12780579 0 0 Z " fill="#2E525D" transform="translate(183,158)"/>
</svg>
